<?xml version="1.0" encoding="utf-8"?>
<!-- Generator: Adobe Illustrator 22.0.1, SVG Export Plug-In . SVG Version: 6.00 Build 0)  -->
<svg version="1.1" id="Layer_1" xmlns="http://www.w3.org/2000/svg" xmlns:xlink="http://www.w3.org/1999/xlink" x="0px" y="0px"
	 viewBox="0 0 400 300" style="enable-background:new 0 0 400 300;" xml:space="preserve">
<style type="text/css">
	.st0{fill:#FFFFFF;}
	.st1{fill:#E7AD47;}
	.st2{fill:#363636;}
</style>
<title>#139_authentication_twocolour</title>
<g>
	<g>
		<rect x="50.3" y="0.3" class="st0" width="299.3" height="299.3"/>
	</g>
	<g>
		<path class="st1" d="M162.7,41.3c-0.1-0.1-0.3-0.2-0.4-0.3c-0.3-0.2-0.6-0.3-1-0.2c-0.1,0-0.1,0-0.2,0.1c-0.2,0-0.4,0.1-0.6,0.2
			c-0.2,0.1-0.4,0.2-0.6,0.3c0,0,0,0,0,0c-0.9,0.2-1.7,0.9-1.9,1.8c-0.1,0.4-0.1,0.9,0,1.3c0.1,0.5,0.8,1.2,0.7,1.7
			c-0.2,0.8,0.7,1.2,1.2,0.8c0.4-0.1,0.9-0.5,1.2-0.7c0.8-0.6,1.3-1.5,1.7-2.4C163.1,43,163.3,42,162.7,41.3z"/>
		<path class="st1" d="M179.8,83.6c0.5-0.2,0.4-0.8,0-1.1c-1.2-0.9-2.6-1.5-4.1-1.9c-0.4-0.1-0.7,0.2-0.7,0.6
			c-0.3,0-0.6,0.2-0.5,0.5c0,0,0,0.1,0,0.1c0,0,0,0,0,0l0,0c0.3,0.9,0.9,1.6,1.6,2.1c0,0,0,0,0.1,0.1c0.1,0.2,0.3,0.3,0.5,0.4
			c0.4,0,0.8,0.1,1.3,0.1c0.1,0.4,0.5,0.7,1,0.4c0.2-0.1,0.4-0.3,0.6-0.4C180,84.3,180,83.9,179.8,83.6
			C179.8,83.6,179.8,83.6,179.8,83.6z"/>
		<path class="st1" d="M235.3,53.7c0,0-0.1-0.1-0.1-0.1c0.1-0.1,0.2-0.1,0.2-0.2c0.5-0.9,0.5-1.8,0-2.7c-0.1-0.1-0.1-0.2-0.2-0.2
			c-0.3-0.5-0.8-1-1.3-1.4c0.2-0.3,0.1-0.8-0.4-0.8c-1.7-0.3-3.3-0.5-5-0.4c-0.5,0-1,0.8-0.5,1.1c1.1,0.9,2.2,1.8,3.3,2.7
			c0.3,0.2,1.6,1.1,2.4,1.8c-0.1,0.1-0.2,0.3-0.1,0.4c0.2,0.6,0.6,0.9,1.2,1.2c0.2,0.1,0.5-0.1,0.5-0.3c0.1-0.3,0.1-0.5,0-0.7
			C235.4,53.9,235.4,53.8,235.3,53.7z"/>
		<path class="st1" d="M248.9,77.1c-1.1-1.7-3.3-2.2-5.2-2.6c-0.3-0.1-0.5,0.1-0.7,0.2c-0.9,0.1-1.8,0.4-2.6,0.8
			c-0.2,0.1-0.2,0.4-0.1,0.5c0,0,0,0.1,0,0.1c1.2,1.6,2.6,3,4.1,4.4c0,0.2,0,0.3,0.2,0.4c0.4,0.2,0.9,0.5,1.2,0.8
			c0.3,0.3,0.7,0,0.7-0.3c0.1,0,0.1-0.1,0.2-0.1C248.1,80.3,250.2,78.9,248.9,77.1z"/>
		<g>
			<path class="st2" d="M250.7,78.1c-0.2-0.3-0.4-0.6-0.5-0.9l0.3-0.2c0.1,0,0-0.2-0.1-0.1c-0.1,0-0.2,0.1-0.3,0.1
				c-3.5-5.2-9.1-2.2-14.2-0.6c-2.5,0.8-4.7,1.5-7.3,0.7c-2.3-0.7-3.7-2.1-5.4-3.6c-1.3-1.1-2.8-2.2-4.3-3c-0.6-0.5-1.2-1-1.8-1.5
				c4-2.8,7.9-5.5,11.8-8.4c2.7-2,6.7-4,7.9-7.3c0.8-2.2-0.3-4.3-2.3-5.4c-2.8-1.5-6.2-0.4-9,0.5c-4.4,1.4-8.8,2.6-13.1,4.1
				c-4,1.4-8.2,2.7-12.1,4.5c-1-0.7-2-1.3-3-1.9c-0.2-0.1-0.3-0.1-0.5-0.1c-0.2-0.1-0.5-0.1-0.7-0.1c0-0.1-0.1-0.1-0.1-0.2
				c-4.4-3.7-9.2-6.9-14.2-9.6c-3.7-2-7.9-4.5-12.2-4.5c-0.9,0-1.8,0.1-2.7,0.1c-1.8,0.1-3.5-0.5-5.3-0.6c-1-0.1-2.1-0.2-3.1,0.3
				c-0.8,0.4-1.3,1-1.5,1.7c-0.1,0.1-0.2,0.2-0.2,0.3c0,0.1,0.1,0.2,0.1,0.4c0,0.3,0.1,0.5,0.2,0.8c2.1,7.3,8.5,12.6,14.3,17
				c3.5,2.7,7.2,5.1,10.9,7.4c-0.2,0.3-0.4,0.6-0.6,0.9c-0.7,0.8-1.2,1.9-1.7,2.7c-1.2-1.3-2.6-2.5-3.7-3.3
				c-0.1-0.6-0.4-1.1-0.9-1.5c-0.9-0.7-1.8-0.7-2.6-0.3c-3.3-0.1-9.1,7.4-5.2,9.6c0.2,0.1,0.5,0.2,0.7,0.3c1.7,1.8,4.5,3.1,6.4,4
				c0,0,0,0,0,0c-2.3,2.1-1.6,5.6,2.1,5.5c2.4-0.1,4.8-2.1,6.8-3.3c3.6-2,7.2-3.9,10.9-5.6c0,0,0,0,0.1,0c0,0,0,0,0.1,0
				c0.1,0,0.2,0,0.2,0c0.1-0.1,0.2-0.1,0.3-0.2c0.3-0.2,0.6-0.3,0.9-0.4c0.5,0.3,1,0.6,1.5,0.8c8.7,5,17.8,9.7,27.6,12.3
				c2.2,0.6,4.4,1.1,6.6,1.4c1.6,0.3,4,1,5.6,0.4c0.9-0.3,1.4-0.8,1.5-1.5c1.5,0.9,3,1.8,4.5,2.3c2.3,0.7,3.1-1,1.8-3
				c-0.8-1.3-2.3-2.4-3.7-3.3c1.2-0.9,2.4-1.8,3.6-2.7c0.2,0.2,0.4,0.4,0.6,0.6c0.1,0.1,0.2-0.1,0.1-0.1c-0.2-0.2-0.4-0.4-0.6-0.6
				c1.8-1.5,3.7-2.9,5.5-4.4C250.8,78.5,250.8,78.2,250.7,78.1z M225.2,62.6c-2.9,2-5.9,4.1-9,5.8c-1,0.6-2,1-2.9,1.4
				c-0.7-0.5-2.2-1.4-2.4-1.9c-0.7-1.4,0.8-3.1,1.7-3.8c1.9-1.7,4.3-2.9,6.6-4.2c0.1,0,0.2-0.1,0.2-0.1c0,0,0,0,0,0
				c1.4,1.2,2.9,2.5,4.4,3.6c0.1,0.1,0.2-0.1,0.1-0.2c-1.4-1.2-2.9-2.4-4.4-3.5c0,0,0,0,0,0c2.4-1.4,13.7-8,14.7-4.2c0,0,0,0,0,0.1
				c-0.2,0.2-0.3,0.4-0.5,0.6C231.4,58.8,228,60.7,225.2,62.6z M215.9,51.8c3.1-1.2,6.3-2.2,9.5-3c1.8-0.5,3.7-1,5.5-0.9
				c4.1,0.4,5.8,3.7,3.7,7.1c-1-3.5-8.1,1-9.7,1.7c-5.4,2.6-12.2,5.3-15.4,10.6c-0.1,0.1,0,0.3,0.1,0.4c1.1,0.8,2.2,1.5,3.3,2.2
				c-2.6,0.9-5.2,1-8.2,0.1c-1.4-0.4-2.9-1-4.3-1.6c1.3,0.2,2.4,0.1,3-0.3c1.9-1.4,2.1-4.2,1.3-6.2c-0.7-1.7-2-3.1-3.6-4.3
				c0.7-0.3,1.4-0.6,2.1-0.9C207.7,56,212.1,53.3,215.9,51.8z M194.9,56.1c0.3-0.1,0.7,0,1,0.4c-0.3,0.1-0.6,0.3-0.9,0.5
				c-0.7,0.7-3.7,3.5-3.3,5c-0.2-0.2-0.2-0.5-0.1-0.8c0-0.1,0.1-0.2,0.2-0.3c0.1-0.4,0.3-0.7,0.5-1.1c0.7-1.4,1.6-2.5,2.6-3.6
				C194.9,56.2,194.9,56.1,194.9,56.1z M196.8,57.6c0-0.3,0-0.5,0-0.7c1,0.3,1.2,0.9,0.6,1.8c-0.1,0.4-0.3,0.8-0.5,1.1
				c-0.4,0.8-1,1.6-1.7,2.2c-0.9,0.9-1,1.1-2,0.7c0.2-0.1,0.4-0.3,0.7-0.5c0.1,0,0.2-0.1,0.2-0.2c0.1-0.2,0.3-0.4,0.4-0.6
				C195.7,60.4,196.5,58.8,196.8,57.6z M193.6,64.3c2-1.1,3.9-3.7,4.4-6c0.1-0.4,0.1-0.8,0.1-1.2c1.2,0.8,2.7,2,3,2.3
				c1.9,1.5,3.8,3.9,2.9,6.5c-1,3-3.9,1.5-5.9,0.7c-1.3-0.5-3.2-1.2-4.6-2.2C193.5,64.3,193.6,64.3,193.6,64.3z M200.8,57.1
				c-0.1,0-0.1,0.1-0.2,0.1c-0.1,0-0.1-0.1-0.2-0.1C200.5,57.1,200.6,57.1,200.8,57.1z M167.7,72.4c0.4-0.9,1.5-2.7,2.8-3.9
				c-0.6,0.7-1.1,1.4-1.4,2c-0.1,0.2-0.2,0.4-0.3,0.6c-1.1,1.7-1.9,3.8,0.4,3.9c0.7,0,1.4-0.4,2-1c0.7-0.4,1.2-1.1,1.7-1.7
				c0.6-0.7,1.8-2.1,2.3-3.3c0.1,0.1,0.3,0.3,0.4,0.4c-0.1,1.7-1.6,3.6-2.7,4.6c-0.9,0.9-2.2,1.7-3.6,1.7
				C167.3,75.7,167.2,73.8,167.7,72.4z M172.4,78.3c-1-0.5-2-1.1-3-1.7c2.8-0.5,6.2-4,6.7-6.8c0.8,0.7,1.6,1.3,2.4,2
				c0.8,0.7,1.6,1.4,2.2,2.2c0.4,0.5,0.7,1,1.1,1.6c1.2,1.9,0.8,3.2-1.3,3.8c-2.1,1.6-2.3,1.5-4.5,0.6
				C174.7,79.6,173.6,79,172.4,78.3z M179.2,82c0,0,0,0.1,0.1,0.1c0,0,0,0,0,0.1c-0.1-0.1-0.1-0.3-0.2-0.4c0,0,0,0,0,0
				C179.2,81.9,179.2,82,179.2,82z M178.5,84.8c-3.5-1.2-4.6-2.5-3.5-4c1.2,0.5,2.6,1,3.9,1c0.1,0.9,0.5,1.6,1.3,2.1
				C179.7,84.3,179.1,84.6,178.5,84.8z M194.2,76.4c0,0-0.1,0.1-0.1,0.1c-3,1.6-6.1,3.1-9.1,4.7c-1.4,0.7-2.7,1.5-4.1,2.3
				c0,0,0,0,0,0c-0.1-0.2-0.3-0.3-0.5-0.5c-0.2-0.2-0.3-0.4-0.5-0.6c0,0-0.1-0.1-0.1-0.2c0-0.1-0.1-0.3-0.1-0.4c0,0,0-0.1,0-0.1
				c0.7-0.1,1.3-0.4,1.9-0.9c0.6-0.6,1-1.2,1.2-1.8c0.4-0.2,0.8-0.4,1.1-0.6c0.1,0,0.2-0.1,0.3-0.2c0.7,1,1.8,1.7,3,1.7
				c0.2,0,0.2-0.2,0-0.2c-1.2-0.2-2.1-0.6-2.9-1.6c2.2-1.4,6.1-4.1,8.3-2.4c0.1,0.1,0.2-0.1,0.1-0.2c-0.9-0.7-1.9-0.8-3-0.5
				c-1.9,0.6-3.8,1.7-5.6,2.8c-0.1-0.1-0.2,0-0.1,0.1c0,0,0,0,0,0c-0.4,0.2-0.8,0.5-1.1,0.7c0.5-2-0.8-4.2-2.5-6.2
				c0,0,0.1-0.1,0.1-0.1c0.6-1,1.4-2,1.8-3.1c0.2-0.3,0.3-0.5,0.5-0.8c4.1,2.5,8.2,4.9,12.3,7.3C194.8,76.1,194.5,76.3,194.2,76.4z
				 M235.7,90.5c-0.7-0.1-1.3-0.1-2-0.2c-0.9-0.1-1.8-0.2-2.6-0.4c-2.4-0.4-4.7-0.9-7-1.6c-3.8-1.1-7.6-2.5-11.2-4.2
				c-7.7-3.4-15-7.7-22.3-12c-11.8-6.9-27-14.8-32.6-28c0.7-2.4,2.1-3.2,4.2-2.4c0.4,0.1,0.9,0.2,1.3,0.3c0.3,0.1,0.7,0.1,1,0.1
				c0.4,0.3,0.8,0.6,1.3,0.9c0.9,0.5,1.8,0.9,2.7,1.3c0.5,0.3,1.1,0.1,1.3-0.4c0.2-0.5,0.1-1.1-0.1-1.6c2.5,0.2,4.7,0.9,7.3,2.1
				c6.4,2.9,12.3,6.6,17.8,11c-0.7,0.4-1.3,1.1-1.9,1.8c-1.4,1.5-2.6,3.5-2.4,5.3c0.1,1,0.7,1.7,1.4,1.9c1,1.2,3.2,2.4,5.5,3.2
				c5.1,2.5,10.1,5.2,15.3,3.6c0,0.3,0.1,0.5,0.2,0.8c0.2,0.4,0.5,0.7,0.9,0.9c0.4,0.2,0.9,0,1.2-0.2c0.6-0.5,0.6-1.2,0.3-1.9
				c-0.1-0.2-0.2-0.4-0.3-0.5c0.1-0.1,0.3-0.2,0.4-0.2c1.1,0.8,2.3,1.3,3.5,2.1c2,1.2,3.6,2.8,5.5,4.1c3,2.1,6,2.6,9.5,1.7
				c1.9-0.5,3.7-1.2,5.6-1.8c1-0.3,2.1-0.8,3.2-1c1.7-0.3,5.5,0.3,6.2,2.3c-3.6,1.7-7.7,3.5-10.5,6.3c-2.2-1.3-4.4-2.5-6.8-3.2
				c0,0-0.1-0.1-0.1-0.1c-2.2-0.7-2.8,1.2-1.9,2.9c1.3,2.3,4.9,3.8,7.1,5c0.3,0.2,0.7,0.4,1,0.6C236.9,89.6,236.3,90,235.7,90.5z
				 M242.6,89.4c-3.8-1.8-7.3-4.1-10.9-6.3c0,0-0.1,0,0,0.1c3.5,2.3,7.1,4.9,11,6.7c0,0.1,0,0.1,0,0.2c-0.3,1.6-1.3,0.2-2.3-0.3
				c-0.6-0.3-1.2-0.7-1.8-1c0-0.1-0.1-0.1-0.1-0.2c-0.1-0.2-0.3-0.2-0.5-0.1c-0.3-0.2-0.5-0.3-0.8-0.5c-1.1-0.6-2.3-1.3-3.3-2
				c-0.4-0.2-0.7-0.5-1.1-0.7c-2-0.8-2.4-2-1.5-3.9c1.7,1.1,5.5,3,8.3,5c-0.3,0.3,0.1,0.9,0.5,0.7c0.1-0.1,0.2-0.1,0.2-0.2
				C241.4,87.6,242.3,88.6,242.6,89.4z M240.6,85.3c-0.4-0.3-0.9-0.5-1.3-0.8c-0.3-0.2-0.7-0.4-1-0.6c1.3-1.2,2.8-2.1,4.4-2.9
				c0.6,0.6,1.2,1.2,1.8,1.8C243.1,83.8,241.7,84.7,240.6,85.3z M244.7,82.7c-0.6-0.6-1.3-1.1-1.9-1.7c0.4-0.2,0.8-0.5,1.3-0.7
				c0.9-0.5,1.9-1,2.8-1.5c0.5-0.3,1.3-0.5,2-0.9C249.1,79.2,247,81,244.7,82.7z"/>
			<path class="st2" d="M173.6,44.2c-0.2-0.1-0.4-0.1-0.6-0.1c-0.7,0-1.1,0.3-1.4,0.9c0-0.1,0.1-0.1,0.1-0.2
				c-0.1,0.1-0.2,0.3-0.2,0.4c-0.1,0.3,0,0.5,0.1,0.7c0,0,0,0.1,0,0.1c0.2,0.4,0.7,0.7,1.2,0.8c0.2,0,0.4,0,0.6,0
				c0.6-0.1,1.1-0.6,1.1-1.2C174.6,45,174.2,44.4,173.6,44.2z"/>
			<path class="st2" d="M177.7,47c-0.1,0-0.2,0-0.3,0.1c-0.5,0.1-0.8,0.5-0.8,1c-0.1,0.4,0.1,0.7,0.3,1.1c0.5,0.7,1.6,0.5,2-0.1
				c0,0,0-0.1,0.1-0.1C179.6,47.9,178.8,46.8,177.7,47z"/>
			<path class="st2" d="M181.8,49.1c-0.7,0.1-1.2,0.7-1.1,1.5c0,0.3,0.2,0.5,0.4,0.7c0.6,0.6,1.6,0.7,2.1-0.1
				c0.1-0.2,0.2-0.4,0.2-0.7C183.5,49.6,182.6,49,181.8,49.1z"/>
			<path class="st2" d="M186.6,51.7c-0.7,0-1.1,0.5-1.2,1.1c0,0.3,0,0.6,0.1,0.9c0.2,0.6,0.7,1.1,1.4,1c0.6,0,1.2-0.6,1.2-1.2
				C188.1,52.6,187.6,51.7,186.6,51.7z"/>
			<path class="st2" d="M191.6,55.5c-0.4-0.3-0.9-0.2-1.2,0.1c0,0-0.1,0-0.1,0.1c-0.3,0.1-0.3,0.4-0.2,0.6c0,0.4,0.1,0.7,0.4,0.9
				c0.5,0.3,1.1,0.2,1.4-0.3C192.2,56.5,192,55.9,191.6,55.5z"/>
			<path class="st2" d="M219.5,73.6c-0.7-0.2-1.5,0.1-1.7,0.8c-0.2,0.7,0.1,1.5,0.8,1.7c0.7,0.2,1.5-0.1,1.7-0.8
				C220.6,74.6,220.2,73.9,219.5,73.6z"/>
			<path class="st2" d="M224.3,79.2c0.4-0.2,0.6-0.6,0.5-1c-0.1-0.5-0.5-0.7-1-0.7c0,0,0,0-0.1-0.1c-0.2-0.2-0.6,0-0.5,0.3
				c0,0,0,0.1,0,0.1c-0.2,0.4-0.4,0.7-0.1,1.2C223.4,79.3,223.9,79.4,224.3,79.2z"/>
			<path class="st2" d="M222.8,84.8c0-0.1,0.1-0.3,0.1-0.4c0-0.1-0.1-0.1-0.1-0.1c-0.2-0.1-0.5,0.1-0.7,0.2
				c-0.3,0.2-0.4,0.6-0.5,0.9c-0.1,0.8,1.2,0.8,1.2,0.1C222.8,85.2,222.8,85,222.8,84.8z"/>
			<path class="st2" d="M221,83.7c-0.4,0.1-1,0.5-0.7,0.9c0.1,0.2,0.3,0.2,0.4,0.1c0.2-0.1,0.2-0.4,0.5-0.4
				C221.4,84.2,221.3,83.7,221,83.7z"/>
			<path class="st2" d="M219.4,83.4c-0.2,0-0.3-0.1-0.5-0.1c-0.1,0-0.2,0.1-0.2,0.2c0.1,0.3,0.4,0.3,0.7,0.3
				C219.7,83.7,219.6,83.3,219.4,83.4z"/>
			<path class="st2" d="M194.5,71.9c-0.2-0.2-0.5,0-0.6,0.3c0,0.1,0,0.1,0,0.2c0,0.1,0.1,0.2,0.3,0.2c0.1,0,0.2,0,0.3-0.1
				C194.7,72.4,194.7,72,194.5,71.9z"/>
			<path class="st2" d="M193.6,70.4c-0.1,0-0.2,0-0.3,0c-0.3,0-0.2,0.5,0,0.4c0.1,0,0.2-0.1,0.3-0.1
				C193.7,70.6,193.7,70.5,193.6,70.4z"/>
			<path class="st2" d="M197.5,63.2c-0.4,0-0.7,0.2-1,0.4c-0.2,0.1-0.1,0.4,0.1,0.4c0.4-0.1,0.8-0.2,1-0.5
				C197.7,63.3,197.6,63.2,197.5,63.2z"/>
			<path class="st2" d="M198.2,64.1c-0.3,0-0.5,0-0.7,0.1c-0.2,0.1-0.2,0.4,0.1,0.4c0.3,0,0.5-0.1,0.7-0.2
				C198.4,64.2,198.3,64.1,198.2,64.1z"/>
			<path class="st2" d="M198.8,65c0.3-0.1,0.7-0.2,1-0.3c0.1-0.1,0.1-0.2-0.1-0.2c-0.3,0-0.7,0.2-1,0.3
				C198.6,64.8,198.6,65,198.8,65z"/>
			<path class="st2" d="M173.2,76.7c-0.4-0.1-0.8,0-1.3-0.1c-0.2,0-0.2,0.3-0.1,0.3c0.4,0.2,1,0.3,1.4,0
				C173.4,77,173.3,76.8,173.2,76.7z"/>
			<path class="st2" d="M174.1,77.6c-0.1,0-0.3,0-0.4,0c-0.2,0-0.2,0.3,0,0.3c0.1,0,0.3,0,0.4,0C174.2,77.9,174.2,77.7,174.1,77.6z"
				/>
			<path class="st2" d="M175.4,78c-0.2,0-0.4,0.1-0.5,0.3c-0.1,0.1,0.1,0.2,0.1,0.1c0.1-0.2,0.2-0.2,0.4-0.2
				C175.5,78.1,175.5,78,175.4,78z"/>
			<path class="st2" d="M165.6,51.5c0.1,0.2,0.1,0.4,0.3,0.6c0,0.1,0.1,0,0.1,0c0-0.3,0-0.4-0.1-0.6
				C165.8,51.3,165.5,51.3,165.6,51.5z"/>
			<path class="st2" d="M167.2,53c-0.1,0-0.2,0-0.3,0c-0.2,0-0.1,0.3,0,0.3c0.1,0,0.2-0.1,0.3-0.1C167.3,53.2,167.3,53,167.2,53z"/>
			<path class="st2" d="M168.3,53.8c-0.1,0-0.2,0.2-0.1,0.2C168.4,54,168.5,53.8,168.3,53.8z"/>
			<path class="st2" d="M180.5,62.5c-0.3,0-0.5,0.1-0.7,0.2c-0.2,0.1,0,0.4,0.2,0.3c0.2-0.1,0.3-0.1,0.5-0.2
				C180.7,62.7,180.7,62.5,180.5,62.5z"/>
			<path class="st2" d="M181.2,63.6c-0.3,0-0.5,0.2-0.8,0.3c-0.2,0.1-0.1,0.4,0.1,0.3c0.2-0.1,0.5-0.2,0.7-0.3
				C181.5,63.8,181.4,63.6,181.2,63.6z"/>
			<path class="st2" d="M182,64.2c-0.1,0-0.2,0-0.4,0c-0.1,0-0.2,0.2,0,0.2c0.1,0,0.3,0,0.4,0C182.1,64.3,182.1,64.2,182,64.2z"/>
			<path class="st2" d="M186.1,64.6c0,0.3,0,0.7,0.1,1c0,0.1,0.2,0.1,0.2,0c0.1-0.3,0-0.7,0-1C186.3,64.4,186.1,64.4,186.1,64.6z"/>
			<path class="st2" d="M187.7,65.4c0.1-0.2-0.2-0.4-0.3-0.2c-0.2,0.3-0.3,0.7-0.2,1.1c0,0.1,0.1,0.1,0.2,0
				C187.6,66,187.6,65.7,187.7,65.4z"/>
			<path class="st2" d="M211.4,61.9c0.1,0.1,0.3,0,0.2-0.1c-0.1-0.2-0.3-0.4-0.4-0.6c-0.1-0.2-0.4,0-0.3,0.1
				C211.1,61.5,211.2,61.7,211.4,61.9z"/>
			<path class="st2" d="M213.4,60.3c0.1,0,0.2-0.2,0.1-0.2C213.3,60.1,213.2,60.3,213.4,60.3z"/>
			<path class="st2" d="M216.8,58.5c0-0.2,0.1-0.4,0.1-0.6c0-0.2-0.2-0.2-0.2,0c0,0.2,0,0.4,0,0.6C216.6,58.6,216.8,58.6,216.8,58.5
				z"/>
			<path class="st2" d="M209.2,79c0,0.2,0,0.3,0.1,0.5c0,0.1,0.2,0.1,0.2,0c0-0.2,0-0.4-0.1-0.6C209.5,78.7,209.2,78.8,209.2,79z"/>
			<path class="st2" d="M211.6,78.8c-0.1-0.2-0.4-0.1-0.3,0.1c0.1,0.3,0.2,0.6,0.5,0.8c0.1,0,0.1,0,0.1-0.1
				C211.7,79.4,211.6,79.1,211.6,78.8z"/>
		</g>
	</g>
	<g>
		<path class="st1" d="M153.3,80.6c-0.5-1.2-1.9-2.4-2.8-3.4c-1.4-1.6-2.9-3.3-4.3-4.9c-3-3.4-6.2-6.7-9.3-10
			c-0.7-0.7-1.6,0.2-1.3,1c0.8,1.8-2.5,7-3.8,8.4c-1.7,1.7-5.5,0.1-7.8-0.2c-3-0.5-7.5-1.9-10.2-0.4c-1.9,1.1-3.7,3.4-5.2,4.9
			c-1.8,1.8-3.6,3.7-5.3,5.5c-0.7,0.8-1.5,1.9-2.4,2.6c-1.9,1.4-4.1,1-6.1,0.9c-3.2-0.2-6.5-0.3-9.7-0.5c-0.2,0-0.3,0-0.4,0.1
			c-0.4-0.1-1,0.3-0.8,0.8c1.4,4,3.5,7.3,6.4,10.4c3.8,4,6.7,8.1,9.6,12.8c0.2,0.3,0.6,0.6,1,0.4c4.6-1.9,8.7-2.3,13.7-2.5
			c3.2-0.1,4.7-1.7,6.8-3.9c2.9-3.1,6.1-6.7,9.6-9.2c1.7-1.2,4.1-1.3,6.1-1.7c2.9-0.5,5.6-0.9,8.5-0.6c2.7,0.3,3.7-2.1,5.1-4.3
			C152,85.2,154.2,83,153.3,80.6z"/>
		<g>
			<path class="st2" d="M159.3,81.1c-4.7-3.7-7.9-8.2-11.7-12.8c-3.7-4.5-7.6-8.7-11.8-12.8c-0.3-0.3-0.9-0.3-1.1,0.1
				c-2.7,4.4-5,9-7,13.7c-4.7-0.6-9.1-2.7-13.8-3.4c-1.5-0.2-2.3-0.2-3,0.3c-0.1,0-0.3,0.1-0.3,0.2c0,0,0,0,0,0.1c0,0,0,0,0,0
				c-0.2,0.2-0.4,0.4-0.5,0.7c-0.1,0-0.1,0-0.2,0.1c-0.4,0.4-0.7,0.7-1.1,1.1c-0.5,0.5-1,1-1.4,1.5c-1.2,1.3-2.3,2.6-3.5,3.9
				c-1.9,2.2-4,4.5-5.3,7.1c-4.4-1.5-9.5-1.4-14-1.4c-2.5,0-4.9,0.1-7.4,0.1c-1.6,0-2.5-0.2-3.7,0.8c0,0,0,0,0,0
				c-0.1,0-0.2,0.1-0.2,0.2c6.7,10.8,15.1,20.8,22.6,31c0,0,0,0,0,0c0.1,0.1,0.2,0.2,0.3,0.3c0.2,0.3,0.6,0.3,0.8,0.2
				c0.4,0.6,0.2,0.3,1,0.5c1,0.3,2.7-0.2,3.7-0.3c1.4-0.1,2.9-0.3,4.3-0.4c4.8-0.5,9.6-0.9,14.4-1.6c0.2,0,0.3-0.1,0.4-0.3
				c0.7-0.4,1.2-1.1,1.7-1.7c1.3-1.5,2.5-3,3.8-4.4c2.5-2.8,5.1-5.4,7.6-8.2c0.1-0.1,0.2-0.3,0.2-0.5c2.9,0.5,6,0.4,8.9,0.6
				c2,0.1,5.2,1.1,7.1,0.4c0.2,0.2,0.5,0.2,0.7-0.1c3.3-4.6,6-9.7,8.7-14.7C159.5,81.7,159.6,81.3,159.3,81.1z M113.6,67.1
				c1.7,0.1,3.6,0.7,5.2,1.2c2.9,0.9,5.8,1.8,8.8,2.2c0.1,0.1,0.3,0.2,0.5,0.2c0.1,0,0.2-0.1,0.4-0.1c0.1,0,0.2-0.1,0.3-0.2
				c0.7,0.9,1.5,1.8,2.3,2.7c-1.3-0.2-2.4-0.7-3.7-0.9c-1.4-0.2-2.7-0.2-4-0.4c2.7,0.6,5.4,1.3,8,1.6c5,5.9,10.1,11.7,15,17.7
				c-2.2,0.5-4.9,0.2-7.1,0.2c-2.6,0-5.1,0.4-7.7,0.8c-2.8-3.7-5.6-7.2-8.4-10.8c-2.7-3.5-5.3-7-8-10.5c0.9,0,1.8,0,2.7,0.1
				c-0.9-0.1-1.8-0.2-2.7-0.1c-0.9-1.2-1.9-2.4-2.8-3.5C112.6,67.2,113.1,67.1,113.6,67.1z M102.8,111.5c-1.5,0.2-4.4,1.2-5.8,0.7
				c0.1-0.2,0.1-0.4,0-0.6c-7.8-10.2-15-21.2-23.5-30.7c4.1-0.5,8.6-0.1,12.8,0c4.1,0,8.1,0.7,12.2,1.1c0.1,0,0.2,0,0.3-0.1
				c0.7,1,1.4,2.1,2.1,3.1c-2.9,0.1-6-0.5-9-0.4c-2.8,0.1-5.5,0.2-8.2,0.7c-0.2-0.2-0.3-0.4-0.5-0.6c0,0-0.1,0-0.1,0
				c0.1,0.2,0.3,0.4,0.4,0.6c-0.2,0-0.3,0.1-0.5,0.1c0,0,0,0,0,0c0.2,0,0.4,0,0.5-0.1c4.9,7.9,10.5,15.4,16,22.9
				c-0.1,0-0.2,0-0.4,0.1c-0.1,0,0,0.1,0,0.1c0.1,0,0.3,0,0.4-0.1c0.3,0.4,0.7,0.9,1,1.3c0.1,0.1,0.3,0,0.2-0.1
				c-0.3-0.4-0.6-0.8-0.9-1.3c5.2-0.9,10.4-1.3,15.6-1.8c0.9,1.2,2,2.4,3.1,3.2c-3.5,0.3-6.9,0.8-10.4,1.2
				C106.5,111,104.7,111.2,102.8,111.5z M101.1,85.3c2.8,4.2,5.5,8.5,8.3,12.7c1.5,2.3,3.2,4.6,5,6.8c0.3,0.4,0.7,0.9,1.1,1.4
				c-5.2,0.5-10.4,0.9-15.5,2c-5.6-7.5-10.8-15.2-16.2-22.9c2.9-0.3,5.8-0.5,8.8-0.6C95.4,84.7,98.3,85.4,101.1,85.3
				C101.1,85.3,101.1,85.3,101.1,85.3z M123.6,104.7c-0.4,0.4-3.3,3.3-3.9,4.8c-0.1,0-0.2,0-0.2,0c-0.7-0.5-2-1.8-3.2-3.2
				c0,0,0,0,0.1,0c0.2,0,0.2-0.3,0-0.2c-0.1,0-0.2,0-0.3,0c-1.4-1.5-2.6-2.9-2.8-3.2c-1.9-2.5-3.7-5.1-5.4-7.8
				c-2.9-4.6-5.6-9.4-9.1-13.5c0,0,0,0,0,0c0,0,0.1,0,0.1-0.1c0.1-0.1,0.2-0.2,0.3-0.4c0,0,0-0.1-0.1-0.1c1.1,0,2.8-3.1,3.4-3.9
				c1.2-1.5,2.4-3,3.7-4.4c1.2-1.3,2.3-2.6,3.6-3.8c0.4-0.4,1-0.9,1.4-1.4c0.2-0.1,0.5-0.2,0.7-0.3c0.8,1.2,1.7,2.3,2.6,3.5
				c-4.5,4.4-8.8,9-12.9,13.8c0,0.1,0,0.1,0.1,0.1c4.2-4.6,8.5-9.2,12.9-13.7c2.4,3.2,5,6.4,7.5,9.6c3,3.9,5.9,7.9,9,11.7
				c0,0-0.1,0-0.1,0c0,0,0,0,0,0c0,0,0.1,0,0.1,0c0,0,0,0.1,0.1,0.1c0,0-0.1,0-0.1,0c-4.8,4.6-9.7,9.1-14.5,13.7
				c-0.1,0.1,0,0.1,0.1,0.1c5.1-4.3,9.9-8.9,14.5-13.6c0,0,0-0.1,0-0.1c0.7,0.9,1.4,1.7,2.1,2.6c-0.2,0-0.3,0-0.5,0.2
				C129.5,98.1,126.5,101.4,123.6,104.7z M149.3,96c0.1-1-14.2-1.2-15.6-1c0,0-0.1,0-0.1,0c-0.7-0.9-1.4-1.9-2.1-2.8
				c3.1-0.3,6.1-0.7,9.2-0.6c1.8,0.1,4,0.2,5.7-0.3c1.1,1.4,2.3,2.8,3.4,4.2C149.6,95.5,149.4,95.7,149.3,96z M156.4,84.4
				c-2.1,3.7-4.4,7.3-6.2,11.2c-1.2-1.4-2.3-2.8-3.5-4.2c0.1-0.1,0-0.2-0.1-0.2c0,0,0,0-0.1,0c-4.9-6-9.7-11.9-14.9-17.7
				c0-0.1,0-0.1-0.1-0.2c1.9-3.3,3.7-6.8,5.6-10.2c0.1-0.1-0.1-0.2-0.2-0.1c-2,3.3-3.9,6.7-5.5,10.2c0,0,0,0,0,0c0,0,0,0-0.1,0
				c-0.9-1-1.7-1.9-2.6-2.9c0.1-0.2,0-0.4-0.1-0.6c1.9-4.4,4.2-8.5,6.7-12.6c5.8,5.6,10.9,11.7,15.9,18c1.2,1.5,2.5,3,3.9,4.3
				c0.5,0.4,2,1.3,2.2,1.9C157.8,82.5,156.9,83.4,156.4,84.4z"/>
			<path class="st2" d="M121.8,71.7c0.5,0.1,1,0.2,1.5,0.2c-1.9-0.4-3.7-0.8-5.6-1C119.1,71.1,120.4,71.4,121.8,71.7z"/>
			<path class="st2" d="M153,81.7c0.1,0,0.1-0.1,0-0.2c-4.8-6.7-9.5-13-15.8-18.4c0,0,0,0,0,0c2.8,2.8,5.8,5.5,8.3,8.6
				c2.6,3.2,4.9,6.7,7.2,10C152.8,81.7,152.8,81.7,153,81.7c-0.1,0-0.1,0-0.1,0c-2,3.1-4.1,6.2-6.1,9.3c0,0,0,0.1,0.1,0.1
				c2.3-2.8,4.4-6.1,6.2-9.3C153.1,81.8,153,81.7,153,81.7z"/>
			<path class="st2" d="M100.4,100.4c-0.2-0.1-0.5-0.2-0.7-0.3c-0.1,0-0.2,0.1-0.1,0.2c0.2,0.2,0.5,0.3,0.7,0.5
				c0.2,0.1,0.4,0.3,0.7,0.3c0.1,0,0.2-0.2,0.1-0.3C100.9,100.6,100.6,100.5,100.4,100.4z"/>
			<path class="st2" d="M100.9,99.4c0.1,0,0.2-0.1,0.2-0.2c-0.2-0.3-0.5-0.4-0.7-0.5c-0.1-0.1-0.3,0.1-0.2,0.2
				C100.4,99.1,100.6,99.4,100.9,99.4z"/>
			<path class="st2" d="M100.5,95.7c0.2,0,0.2-0.2,0-0.2C100.3,95.4,100.3,95.7,100.5,95.7z"/>
			<path class="st2" d="M120.1,92.3c0-0.3,0-0.5,0-0.8c0-0.3,0.1-0.6,0.2-0.8c0.1-0.2-0.3-0.4-0.4-0.2c-0.2,0.5-0.4,1.4,0,1.8
				C119.9,92.5,120.1,92.4,120.1,92.3z"/>
			<path class="st2" d="M121.6,91.2c0.2-0.2,0.2-0.4,0.3-0.7c0.1-0.2-0.3-0.3-0.3-0.1c-0.1,0.3-0.1,0.5-0.1,0.7
				C121.5,91.2,121.6,91.2,121.6,91.2z"/>
			<path class="st2" d="M132.7,85c0.3,0.1,0.7,0.3,1,0.3c0.2,0,0.2-0.2,0.1-0.3c-0.3-0.2-0.7-0.3-1-0.4
				C132.6,84.6,132.5,85,132.7,85z"/>
			<path class="st2" d="M133.7,82.7c0.1,0,0.2-0.1,0.1-0.2c-0.1-0.1-0.2-0.1-0.3-0.2c-0.2-0.1-0.3,0.2-0.1,0.3
				C133.5,82.6,133.6,82.7,133.7,82.7z"/>
			<path class="st2" d="M140.8,72c0.1,0.1,0.1,0.2,0.2,0.3c0.1,0.1,0.3,0,0.2-0.1c0-0.1-0.1-0.2-0.2-0.4
				C141,71.7,140.7,71.8,140.8,72z"/>
			<path class="st2" d="M149.5,89.6c-0.2-0.1-0.4,0.3-0.1,0.4c0.3,0.1,0.6,0.3,0.9,0.3c0.1,0,0.2-0.2,0.1-0.2
				C150.1,89.8,149.8,89.7,149.5,89.6z"/>
			<path class="st2" d="M151.9,87.2c-0.1-0.2-0.4,0.1-0.2,0.2c0.1,0.1,0.2,0.2,0.4,0.3c0.1,0.1,0.2-0.1,0.1-0.1
				C152.1,87.5,152,87.4,151.9,87.2z"/>
			<path class="st2" d="M80.3,83.1c-0.1,0.5-0.2,0.9-0.2,1.4c0,0.1,0.1,0.1,0.1,0c0.2-0.4,0.3-0.9,0.3-1.3
				C80.6,83,80.4,82.9,80.3,83.1z"/>
			<path class="st2" d="M78.7,82.6c0,0.3,0,0.7,0.1,1c0,0.1,0.1,0.1,0.1,0c0-0.3,0-0.7,0.1-1C78.9,82.5,78.7,82.5,78.7,82.6z"/>
		</g>
	</g>
	<g>
		<path class="st1" d="M88.6,128.3c-0.6-1.2-1.5-1.8-2.8-1.8c-1.1,0-3.4,0.3-4.1,1.2c-0.1,0.1-0.1,0.2-0.2,0.4
			c-1.3,1.2-1.9,5.8-2,6.8c-0.1,0.9-0.1,1.6,0.9,1.6c1.9,0,4.3-1.1,6-1.8c1.2-0.5,2.4-0.9,2.8-2.3C89.6,131.2,89.1,129.5,88.6,128.3
			z"/>
		<path class="st1" d="M97.6,127.7c-0.5-1.2-0.9-2.1-2.3-2.1c-1.3-0.1-3.9,0.2-4.7,1.4c0,0,0,0-0.1-0.1l-0.2-0.1
			c-0.1-0.1-0.3,0-0.4,0.2c-0.4,0.7-0.1,1.4,0,2.1c0.2,1.4,0.5,2.7,0.8,4.1c0.1,0.3,0.4,0.5,0.7,0.4c2-0.6,4.4-1.2,6.2-2.3
			C99.1,130.5,98.1,128.9,97.6,127.7z"/>
		<path class="st1" d="M106.2,128.8c-0.3-0.8-0.8-1.5-1.3-2.2c-0.5-0.7-0.9-1.5-1.6-1.9c-0.1,0-0.2,0-0.2,0c-1-0.5-2.5-0.2-3.5,0.1
			c-0.9,0.3-1.3,0.7-1,1.6c0.3,0.8,0.7,1.6,1.1,2.4c0.3,0.5,0.4,1,1,1.1c0.6,0.1,1.4-0.1,1.9-0.1c1-0.1,2-0.2,3-0.3
			C106,129.5,106.3,129.2,106.2,128.8z"/>
		<g>
			<path class="st2" d="M110.2,138.7c-0.5-0.1-1,0-1.4,0.3c-0.1,0.1-0.2,0.2-0.3,0.4c-0.1,0.1-0.2,0.2-0.3,0.3
				c-0.5,0.6-0.5,1.5-0.1,2.2c1.1,1.8,3.8,0.7,3.9-1.2C112.1,139.6,111.3,138.6,110.2,138.7z"/>
			<path class="st2" d="M116.5,133.5c-0.2-1.2-0.3-2.5-0.6-3.7c-0.9-2.8-2.7-3.2-5.3-2.5c-1.7,0.4-3.6,0.5-5-1.1
				c-0.3-0.4-0.4-1.4-0.7-1.8c-0.6-0.9-1.4-1.6-2.4-2c-1.5-0.5-3.2,0.1-4.7,0.4c-2.8,0.6-5.5,1.2-8.3,1.8c-3,0.7-6.3,0.9-8.3,3.2
				c-0.1,0-0.1,0.1-0.2,0.1c-0.2,0.1-0.3,0.3-0.2,0.5c-0.1,0.2-0.2,0.3-0.3,0.5c-0.9,1.5-1.6,3.2-1.9,4.9c-0.2,1,0,2-0.5,2.8
				c-0.7,1-2.4,1.1-3.5,1.5c-3.1,1-7.4,2.2-9.3,5c-1.3,1.8-1.3,4.5,0.3,6c-0.3,0.1-0.5,0.3-0.7,0.4c-0.4,0.3-0.5,0.5-0.6,1
				c-0.2,1-0.2,2.3-0.2,3.3c0,0.4,0.3,0.7,0.6,0.8c1.2,0.3,2.6-0.3,3.8-0.5c1.6-0.4,3.3-0.7,4.8-1.3c0.2-0.1,0.3-0.2,0.3-0.4
				c0,0,0,0,0,0.1c1.3,2.2,4.1,3.6,6.5,2.6c2.1-0.8,3.4-3.1,3.6-5.4c0.3,0.3,0.8,0.3,1.2,0.1c3.1-0.3,6.2-1.5,9.2-2.3
				c0.9-0.3,8-2,10.8-3c0,0.1,0.1,0.2,0.1,0.3c1.1,2.7,4.1,2.9,6.7,2.2c2.4-0.7,3.6-2.7,3.8-4.8c0-0.2,0-0.5,0-0.7
				c0.6,0.1,1.2-0.2,1.3-0.8c0,0,0.1,0,0.1,0c0.4,0.1,0.8,0,1-0.4c0.5-0.7,0.4-1.1,0.3-1.9C117.9,136.8,116.8,135.1,116.5,133.5z
				 M104.3,126.6c0.6,1,1,1.8,1.7,2.2c-1.3,0.5-3,0.5-4.2,0.7c-0.5,0.1-1,0.3-1.5,0c-0.5-0.3-0.6-0.8-0.8-1.3c-0.3-1-0.6-1.9-1-2.8
				c0.6-0.4,1.6-0.3,2.3-0.4c0.5-0.1,1.2-0.2,1.7-0.1c0.1,0,0.2,0,0.2-0.1C103.3,125.2,103.8,125.7,104.3,126.6z M80.9,129.6
				c0.3-0.6,0.6-1.1,1-1.5c1.2-0.5,2.7-1.1,3.9-1.2c2.1-0.1,2.1,0.9,2.7,2.5c0.4,1.1,0.7,2,0.2,3.1c-0.8,1.7-4,2.2-5.7,2.8
				c-1.1,0.3-2.2,0.6-3.2,1C79.8,134.1,79.9,131.7,80.9,129.6z M70.8,139.9c2.7-1,5.7-1.5,8.4-2.1c0.2-0.1,0.4-0.2,0.5-0.5
				c2.6-0.3,5.2-1.4,7.5-2.3c1.8-0.7,2.6-1.2,2.3-3.1c-0.2-1.3-0.9-4.8-2.1-5.5c-0.2-0.1-0.5-0.2-0.8-0.2c0.8-0.1,1.7-0.2,2.5-0.4
				c2.1-0.4,4.3-0.8,6.4-1.2c2-0.4,4.1-0.8,5.9-0.4c-0.2,0-0.3,0.1-0.5,0.1c-1,0.1-2.1,0.2-2.8,0.9c0,0,0,0.1,0,0.1c0,0,0,0,0,0
				c0.3,1.3,0.5,3.3,1.2,4.5c0.5,0.8,1.5,0.6,2.4,0.5c1.2-0.2,4.2-0.1,5.5-1.1c0.5,0.1,1,0.1,1.6,0c0.5-0.1,1-0.2,1.5-0.3
				c2.1-0.4,3.4,0.2,4.7,2.2c0.3,0.4,0.8,2.7,1.2,4.7c-0.3,0.1-0.5,0.2-0.7,0.3c-0.2,0.1-0.3,0.2-0.5,0.2c-1.7-2.3-4.3-3.6-7.4-2.6
				c-3.5,1.1-5.1,4.8-4.1,8.1c-6.2,1.4-12.5,2.6-18.5,4.6c-0.4-1.8-1.1-3.6-2.6-4.7c-2-1.4-4.8-1.3-7-0.4c-2.1,0.9-3.8,2.6-4.5,4.8
				c-0.1,0.4-0.2,0.9-0.3,1.4c-1,0.3-1.9,0.5-2.9,0.8c-0.5,0.1-1,0.2-1.6,0.4C65.6,144.8,66.7,141.5,70.8,139.9z M77,143.4
				c-1,0.4-1.8,1.1-2.4,2c0,0,0,0,0,0c-0.3,0.1-0.5,0.3-0.7,0.5c0.5-1,1.4-1.8,2.5-2.3C76.5,143.6,76.8,143.5,77,143.4z M68.8,152.1
				c-0.8,0.1-1.5,0.3-2.3,0.4c-0.3,0.1-0.7,0.1-1,0.2c-0.7,0.4-1,0.1-0.6-0.8c0-1-0.3-1.3,0.7-1.5c0.7-0.2,1.4-0.2,2-0.4
				c1-0.2,2.1-0.4,3.1-0.7c0.1,0.9,0.4,1.7,1,2.3C70.7,151.7,69.7,151.9,68.8,152.1z M77.7,153.6c0,0-0.1,0-0.1,0
				c1.8,0,3-1.3,3.5-2.9c0.2-0.2,0.3-0.5,0.5-0.8c0.9-2.1,0-3.6-1.6-4c-0.5-0.3-1.2-0.5-2-0.3c-1.8,0.4-2.2,1.5-2,2.7
				c-0.1,0.4-0.2,0.8-0.1,1.2c0.4,2.9,3.3,3.1,4.9,1.5c-0.5,0.9-1.3,1.7-2.3,2c-1.2,0.3-2.2,0-2.9-0.7c-0.5-0.5-0.9-1.1-1.2-1.8
				c-0.5-1.6-0.1-2.8,0.4-4.3c1.4-2.4,4.7-3.8,7.1-1.3C84.6,147.9,82.5,154.9,77.7,153.6z M95.1,146c-3.1,0.9-6.5,1.6-9.5,2.8
				c0-0.2,0-0.3-0.1-0.5c-0.1-0.6-0.2-1.3-0.3-1.9c6.1-1.9,12.3-3.2,18.5-4.4c0.1,0.3,0.2,0.7,0.4,1c0.1,0.1,0.2,0.3,0.4,0.3
				c0,0,0,0,0,0C101.4,143.8,98,145.2,95.1,146z M110.3,145c-1,0.2-2.6,0.2-3.3-0.8c-0.5-0.8-0.7-2.5-0.7-3.5
				c-0.1-2.6,1.2-4.1,3.5-4.4c1.6,0.9,3.2,1.7,3.8,3.5C114.4,142.3,112.8,144.6,110.3,145z M116.8,138.9c-0.1,0-0.3,0-0.4,0.1
				c-0.3-0.8-0.7-1.6-1.1-2.3c0.1,0,0.3-0.1,0.4-0.2c0.2-0.1,0.4-0.2,0.7-0.3C116.6,137.7,116.8,138.9,116.8,138.9z"/>
			<path class="st2" d="M90.8,134.2c2.4-0.5,4.9-1.4,7.1-2.6c1.6-0.9,0.9-2,0.3-3.5c-0.5-1.2-0.8-2.8-2.2-3c-0.9-0.1-2,0.2-3,0.4
				c-1.2,0.2-2.6,0.4-3.6,1.1c-0.3,0.2-0.2,0.7,0.2,0.7c0,0,0,0,0.1,0c-0.1,2.2,0.4,4.6,0.9,6.7C90.5,134.2,90.7,134.2,90.8,134.2z
				 M90.2,129.9c-0.1-0.9-0.2-1.8-0.3-2.6c1.7-0.2,3.4-1.1,5.1-1.1c1,0,1.6,0.3,2.2,1.3c0.2,0.4,0.3,0.9,0.5,1.3
				c0.5,1.4,0.3,2-1,2.7c-1,0.5-5.2,2.8-5.9,1.5C90.4,132.2,90.3,130.8,90.2,129.9z"/>
			<path class="st2" d="M110.3,131.8c0.6,0,1,0.3,1.4,0.7c0.1,0.1,0.2-0.1,0.1-0.1c-0.3-0.6-0.9-0.8-1.5-0.9
				C110.1,131.5,110.1,131.8,110.3,131.8z"/>
			<path class="st2" d="M112.5,131.8c0.1,0,0.1-0.1,0.1-0.2c-0.3-0.3-0.7-0.4-1.1-0.5c-0.2-0.1-0.3,0.2-0.1,0.3
				C111.7,131.5,112.1,131.7,112.5,131.8z"/>
			<path class="st2" d="M93.9,141.4c0.2,0.4,0.6,0.9,1,1.1c0.2,0.1,0.3-0.1,0.3-0.3c-0.2-0.4-0.7-0.9-1.1-1.1
				C94,141.1,93.9,141.2,93.9,141.4z"/>
			<path class="st2" d="M94.9,140.9c0.2,0.3,0.4,0.7,0.6,1c0.1,0.2,0.4,0,0.3-0.2c-0.2-0.3-0.4-0.6-0.6-0.9
				C95.1,140.6,94.8,140.7,94.9,140.9z"/>
			<path class="st2" d="M69,145.4c0.1,0.1,0.3-0.1,0.2-0.2c-0.2-0.3-0.5-0.5-0.7-0.8c-0.1-0.1-0.4,0.1-0.2,0.2
				C68.5,144.9,68.8,145.2,69,145.4z"/>
			<path class="st2" d="M69.9,144c0.1,0.1,0.2-0.1,0.1-0.2c-0.1-0.2-0.3-0.3-0.5-0.4c-0.1-0.1-0.3,0.1-0.2,0.2
				C69.5,143.7,69.7,143.9,69.9,144z"/>
		</g>
	</g>
	<g>
		<path class="st1" d="M118,193.8c-1.1-2.6-2.3-5.2-3.5-7.8c-0.1-0.3-0.6-0.3-0.8-0.1c-5.1,4.9-10.1,9.5-12.9,16.2
			c-1.3,3.2-2.9,7.1-3.3,10.6c-0.3,2.8,1.8,5.5,3.1,7.8c0,0,0.1,0.1,0.1,0.1c0,0.1,0,0.1,0,0.2c0,0.2,0.3,0.2,0.3,0c0,0,0,0,0,0
			c0.3,0,0.7-0.4,0.5-0.8c-0.1-0.2-0.3-0.5-0.4-0.7c0.8-10,8.8-19.4,16.7-24.9C118,194.3,118.1,194,118,193.8z"/>
		<path class="st1" d="M107,168.3c-0.1-0.3-0.6-0.3-0.8-0.1c-4.1,5.1-7.9,10.5-10.7,16.4c-2.7,5.7-1.8,11.5-1.3,17.5
			c-0.1,0.8-0.1,1.6-0.1,2.3c0,0.1,0.1,0.1,0.1,0c0.1-0.4,0.1-0.7,0.2-1.1c0.2,0.2,0.6,0.1,0.6-0.2c0-0.7-0.1-1.5-0.1-2.2
			c1.3-6.2,3.6-12.2,7.2-17.5c1.1-1.7,2.4-3.2,3.7-4.7c0.9-1,2.6-2.1,3.3-3.2C110.3,173.3,108,170.4,107,168.3z"/>
		<g>
			<path class="st2" d="M138.6,231.3c-1.2-0.1-2.2,0-3.4,0.1c-1.1,0.1-1.9,0.3-2.6,0.3c0.9-1.8,1.6-3.7,2.3-5.6
				c0.2-0.6-0.3-1.2-0.9-1.2c-9.8,0.3-19.6,0.6-29.5,0.9c0.1-0.1,0.1-0.2,0-0.4c-2.4-4.6,4.3-10.7,7.5-12.9
				c3.3-2.3,8.9-5.8,13.1-5.6c0.4,0,0.7-0.5,0.4-0.8c-9.4-14.1-12.7-31.3-21.9-45.5c-0.1-0.2-0.3-0.1-0.4,0
				c-0.2-0.1-0.4-0.1-0.5,0.1c-7,8.4-10.1,21.3-10.2,32.1c0,0.1-0.1,0.2-0.1,0.3c0,0.1,0.1,0.1,0.1,0.1c0,0.1,0,0.3,0,0.4
				c0.1,6.1,1.1,12.2,3.1,18c1.7,4.9,4,10.3,7.6,14.1c-7.9,0.2-15.7,0.4-23.6,0.7c-0.5,0-1,0.7-0.7,1.2c1,1.4,2,3,3.1,4.4
				c-2.6,1.1-5,1.4-6.5-1.6c-0.1-0.3-0.6-0.1-0.5,0.2c1.3,4,5.8,3.3,8.8,1.7c1.8-0.9,3.6-2.5,5.7-2.6c2.6-0.1,4.3,1.8,6.5,2.9
				c0,0,0.1,0,0.1,0c-1,0.1-1.9,0.4-2.7,1.1c0,0,0,0.1,0.1,0.1c2.6-0.8,4.5,0.1,7,0.7c1.6,0.4,3.3,0.8,4.7-0.2
				c0.3-0.2,0.2-0.8-0.2-0.8c-1.3,0-2.6-0.2-3.9-0.4c0.5-0.1,1.1-0.3,1.6-0.5c1.1-0.4,2-1.2,3.1-1.6c4.4-1.6,4.1,0.2,6.9,1.5
				c0.2,0.1,0.5,0.2,0.7,0.3c-0.2,0-0.4,0-0.6,0c-0.7,0-2.5,0.2-2,1.3c0.1,0.1,0.3,0.1,0.2-0.1c-0.1-0.9,6.4,0.7,7.3,0.8
				c1.5,0.1,2.7-0.2,3.6-1.4c0.2-0.3-0.1-0.7-0.4-0.6c-1.5,0.5-2.7,0.8-4.3,0.6c-0.8-0.1-1.5-0.3-2.3-0.4c1.2,0,2.3-0.4,3.5-1
				c2.9-1.3,4.9-2.8,8-1c0.9,0.5,1.5,1.2,2.6,1.5c0.2,0.1,0.4,0.1,0.7,0.2c0,0,0,0,0,0.1c0.1,0,0.1,0,0.2,0c2.8,0.5,5.9-0.7,8.7-0.7
				C139.2,232.2,139.2,231.4,138.6,231.3z M117.4,208.4c-3,1.4-5.9,3-8.4,5.1c-2.5,2.2-6.2,6.8-5.8,10.6c-0.7-1.1-1.4-2.2-2-3.3
				c1.4-10.7,7.4-20.7,16.8-26.4c1.8,4,3.8,7.8,6.1,11.5C121.8,206.2,119.5,207.4,117.4,208.4z M114.3,185.8
				c1.2,2.8,2.3,5.7,3.6,8.5c0,0,0,0,0,0c-9.2,6.2-15.3,15.6-16.7,26.5c-1.2-2.2-2.4-4.5-3.3-6.8
				C99.3,202.8,104.9,192.3,114.3,185.8C114.3,185.8,114.3,185.8,114.3,185.8z M94.8,204.3c1.3-11.3,6.1-21.5,14.9-29.1
				c0.2-0.2-0.1-0.4-0.3-0.3c-8.3,7.2-14,17.6-14.8,28.5c-0.6-3.1-1-6.4-1-9.7c0-1.2,0-2.5,0.1-3.7c2.9-8,6.3-15.4,12.8-21.3
				c0.1-0.1-0.1-0.3-0.2-0.2c-6.4,5.2-9.9,12.9-12.6,20.6c0.3-4.1,1-8.2,2.2-12.2c1.7-5.7,4.7-10.4,7.4-15.6
				c3.9,7.8,7.3,15.6,10.6,23.7c0.1,0.1,0.1,0.3,0.2,0.4c0,0,0,0-0.1,0c-9.1,6.9-15.2,16.8-16.3,28.3
				C96.6,210.8,95.5,207.6,94.8,204.3z M127.2,230.5c-1.7-0.8-2.3-1.6-4.5-1.2c-3.4,0.6-6,4.1-9.8,2.4c-2-0.9-2.9-2.4-5.3-2.1
				c-2.9,0.4-5,3-8.1,3c-3.2,0-4.8-3-7.7-3.7c-2.3-0.5-5.3,1.3-8.1,2.7c-0.8-1.2-1.6-2.3-2.4-3.4c17.1-0.4,34.2-0.7,51.3-1.1
				c-0.7,1.6-1.5,3.1-2.2,4.7C129.5,231.5,128.6,231.1,127.2,230.5z"/>
			<path class="st2" d="M113.7,229.7c0.3,0.4,0.5,0.9,0.9,1.3c0.1,0.1,0.3,0,0.2-0.1c-0.1-0.5-0.5-0.9-0.8-1.3
				C113.9,229.3,113.6,229.5,113.7,229.7z"/>
			<path class="st2" d="M115.5,229c-0.1-0.1-0.3,0-0.2,0.2c0.2,0.3,0.4,0.6,0.7,0.8c0.1,0.1,0.3-0.1,0.2-0.2
				C116.1,229.4,115.8,229.2,115.5,229z"/>
		</g>
	</g>
	<g>
		<path class="st2" d="M312.6,107.1c-7.7-1.3-15.4,3.3-18.5,10.5c-1.6,3.8-2.1,8.3-0.6,12.2c1,2.7,3.5,6.2,6.7,6.6
			c-0.6,1.7-0.4,3.7-0.4,5.5c0,2.8,0,5.6,0.1,8.4c0,0.7,1,1,1.3,0.4c1.2-2.3,2.7-4.3,4.2-6.4c1.5-2.2,3-5.1,5.1-6.7
			c0.1-0.1,0.2-0.2,0.2-0.3c3.2,0.5,6.7-1.6,9-3.5c3-2.5,4.8-5.8,5.3-9.6C326.3,115.8,320.8,108.5,312.6,107.1z M319.3,133.1
			c-1.1,0.8-2.2,1.3-3.3,1.7c-0.2-0.4-0.4-0.8-0.5-1.3c-0.2-0.6-0.3-1.1-0.2-1.7c0-0.2-0.3-0.2-0.3,0c-0.1,1,0,2.2,0.5,3.1
			c-0.4,0.1-0.7,0.2-1.1,0.2c0-0.3-0.1-0.6-0.1-0.9c-0.1-0.5-0.1-1.1-0.5-1.5c-0.1-0.1-0.1,0-0.2,0c-0.1,0.4,0,0.9,0.1,1.4
			c0,0.3,0.1,0.7,0.1,1.1c-1.1,0.2-2.3,0.4-3.5,0.7c-0.1,0-0.1,0.1-0.2,0.1c-0.3,0-0.5,0.2-0.6,0.5c-0.7,2.4-2.9,4.7-4.4,6.7
			c-1.2,1.7-2.4,3.5-3.8,5.1c-0.1-2.2-0.1-4.4-0.1-6.6c0-1.8,0.2-3.7-0.3-5.5c0.3-0.1,0.5-0.4,0.3-0.6c-1.4-2.2-3.7-3.6-5.2-5.9
			c-2.1-3.4-2.6-7.2-1.4-11c2.3-7,9.5-11.5,16.7-10.3c7.2,1.2,12.8,7.5,12.8,14.9C324.2,127.2,322.3,130.8,319.3,133.1z"/>
		<path class="st2" d="M305.1,117.4c-2.5,1.4-3.2,6-2.4,8.5c1.1,3.1,6.2,4.3,8.5,1.9c2.4-2.5,3.6-6.5,1.3-9.4
			C311.2,116.9,306.3,115.3,305.1,117.4z M309.8,127.3c-1.3,0.5-2.1,0.3-3.4-0.3c-1.6-0.7-2.2-1.5-2.2-3.3c0-1.1,0.1-2.3,0.5-3.3
			c0.1-0.2,0.3-0.7,0.7-1.3c0.2,0,0.3-0.1,0.4-0.3c0.3-0.5,0.7-0.9,1.2-1.1c0.1,0,0.1,0.1,0.2,0.1c0.1,0.1,0.3,0,0.2-0.2
			c0,0,0,0,0-0.1c2.2-0.7,5.2,1.3,5.7,3.3C313.7,123.4,312,126.4,309.8,127.3z"/>
		<path class="st2" d="M317.1,129.3c-0.2-0.1-0.4,0.1-0.2,0.3c0.3,0.3,0.8,0.8,1.2,0.8c0.1,0,0.2-0.1,0.2-0.2
			C318.1,129.7,317.4,129.5,317.1,129.3z"/>
		<path class="st2" d="M319.2,126.9c-0.3-0.1-0.6-0.1-0.8-0.4c-0.2-0.2-0.5,0.1-0.3,0.3c0.3,0.3,0.7,0.6,1.1,0.3
			C319.3,127.1,319.3,126.9,319.2,126.9z"/>
		<path class="st2" d="M304.6,137.1c-0.5-0.1-0.6,0.3-1,0.6c-0.1,0.1,0,0.3,0.1,0.2c0.4-0.2,0.8-0.2,0.9-0.7
			C304.7,137.2,304.7,137.2,304.6,137.1z"/>
		<path class="st2" d="M304.3,135.3c-0.3-0.1-0.4,0.4-0.1,0.5c0.2,0.1,0.5,0.2,0.8,0.2c0.2,0,0.3-0.3,0.1-0.4
			C304.8,135.3,304.6,135.3,304.3,135.3z"/>
		<path class="st2" d="M296.3,122.6c-0.2,0-0.3,0.3-0.1,0.3c0.3,0.1,0.6,0.2,0.9,0.1c0.1,0,0.1-0.1,0-0.1
			C296.9,122.7,296.6,122.7,296.3,122.6z"/>
		<path class="st2" d="M313.3,110.3c-0.6-0.1-0.8,0.8-0.3,1c0.1,0,0.2,0,0.2-0.1c0,0,0.1,0.1,0.1,0.1
			C314,111.4,313.9,110.3,313.3,110.3z"/>
		<path class="st2" d="M314.6,113c-0.2,0-0.3,0.1-0.4,0.2c-0.2,0.1,0,0.4,0.2,0.3c0.1-0.1,0.3-0.1,0.4-0.2
			C314.9,113.2,314.8,113,314.6,113z"/>
	</g>
	<g>
		<path class="st1" d="M295.1,82.6c-1.9,0.1-3.4,1.9-4.9,2.9c-1.6,1.2-3.6,2.2-5,3.8c-0.7,0.8,0,2.3,1.1,1.9c2-0.7,3.8-2.2,5.6-3.5
			c1.4-1,3.6-2.1,4.1-3.9C296.3,83.3,295.8,82.6,295.1,82.6z"/>
		<path class="st1" d="M297.4,86.9c-1.8,0.3-3.6,2-5.1,3c-1.5,1-3.2,2-4.3,3.5c-0.6,0.8,0.4,1.8,1.2,1.6c1.9-0.5,3.5-2,5.1-3
			c1.5-1,3.4-1.9,4.4-3.4C299.2,87.6,298.3,86.7,297.4,86.9z"/>
		<g>
			<path class="st2" d="M312.6,90.4c-1.3-1.3-2.5-2.6-3.6-4c0,0,0,0-0.1-0.1c0.2-0.2,0.4-0.5,0.6-0.7c0.2-0.3,0.3-0.7,0.1-1
				c-7.3-10.6-14.8-21-21.8-31.8c-0.2-0.3-0.6-0.4-0.9-0.1c-8.1,8.1-17.7,13.6-27.1,20.1c-0.2,0.2-0.3,0.4-0.4,0.6
				c-0.5,0.4-0.7,1.1-0.1,1.8c4.5,5,7.9,11,11.8,16.6c3.5,5.1,7.5,10,10.6,15.5c0.3,0.6,0.9,0.6,1.3,0.3c0.1,0.1,0.3,0.2,0.4,0.2
				c0.1,0.2,0.3,0.3,0.6,0.2c4.9-2.1,9.5-5.7,14.1-8.5c4.7-2.9,9.4-5.6,14.3-8.1C312.8,91.2,312.9,90.6,312.6,90.4z M271.5,90.6
				c-3.6-5.3-7.5-10.7-9.9-16.6c0-0.1-0.1-0.1-0.1-0.2c6.5-4,12.8-8.7,18.7-13.4c1.7-1.3,3.3-3.3,5.1-4.4c0.6-1.2,1.5-1.5,2.6-1
				c0.7,1,1.5,2,2.1,3c2.7,3.7,5.2,7.6,7.8,11.4c2.5,3.8,5,7.7,7.5,11.6c1.6,2.5,2.8,3.6,1.7,6.4c-0.7,1.9-2.7,3.6-4.1,5
				c-3.3,3.5-7.1,6.3-11,9c-1.6,1-3.2,2-4.7,3.1c-1.2,0.7-2.3,1.5-3.5,2.2c0-0.2-0.1-0.3-0.3-0.5C278.8,101.4,275.1,95.9,271.5,90.6
				z M308.8,91.9c-2.9,1.8-6.1,3.3-9.1,4.9c-0.7,0.4-1.5,0.8-2.3,1.2c4.1-3.3,7.4-7,10.8-10.9C309.8,89.3,311.7,90.1,308.8,91.9z"/>
			<path class="st2" d="M288.3,68.9c-3.6-3.7-9.6-3.3-13.2,0.1c-0.1,0.1-0.1,0.3,0,0.4c-3.2,2.7-3,8.4-0.6,11.6
				c3.3,4.3,9.6,4.8,13.6,1.2C291.9,78.7,291.9,72.6,288.3,68.9z M289.5,79.1c-0.4-1.2-1-2.6-1.7-3.9c0.7-0.9,1.4-1.9,1.9-2.9
				C290.5,74.5,290.5,77,289.5,79.1z M289.6,72.1c-0.6,1-1.3,2-2,2.9c-1.3-2.2-3-4.4-5-5.7c1.1-0.5,2.2-1,3.5-1.3
				c0.6,0.4,1.2,0.8,1.7,1.3C288.6,70.1,289.2,71.1,289.6,72.1z M275.6,69.7c0.2-0.3,0.5-0.6,0.8-0.9c0.3-0.2,0.5-0.3,0.8-0.5
				c1.8-0.3,3.4,0.1,4.9,1c-2.4,1.3-4.5,3.2-5.9,5.6C275.6,73.2,275.4,71.4,275.6,69.7z M282.4,69.4c2,1.4,3.7,3.6,5,5.9
				c-2,2.4-4.3,4.3-7,5.8c-1.1-1-2-2.2-2.4-2.8c-0.7-1-1.3-2.1-1.7-3.2C277.7,72.7,279.8,70.7,282.4,69.4z M285.9,67.9
				c-1.2,0.2-2.4,0.7-3.5,1.2c-1.5-0.9-3.1-1.3-4.8-1C280.1,66.7,283.3,66.5,285.9,67.9z M275.4,69.9c-0.3,1.7-0.1,3.5,0.5,5.1
				c-0.8,1.3-1.4,2.8-1.7,4.3C272.6,76.3,273.4,72.7,275.4,69.9z M274.3,79.5c0.4-1.5,1-2.9,1.7-4.2c0.5,1.4,1.3,2.6,2.2,3.8
				c0.4,0.5,1.1,1.3,1.9,2.1c-0.9,0.5-1.9,1-2.9,1.4c-0.6-0.4-1.2-0.9-1.7-1.4C275.1,80.6,274.7,80.1,274.3,79.5z M277.4,82.6
				c1-0.4,2-0.8,2.9-1.3c1,1,2.3,1.9,3.4,2.3C281.6,84.1,279.3,83.8,277.4,82.6z M284.1,83.6c-1.2-0.3-2.5-1.2-3.6-2.3
				c2.7-1.4,5.1-3.4,7-5.7c0.8,1.4,1.4,2.8,1.8,4c-0.4,0.7-0.8,1.3-1.4,1.9C286.8,82.5,285.5,83.2,284.1,83.6z"/>
		</g>
	</g>
	<g>
		<path class="st2" d="M248.6,265.6c0.1,0,0.1,0,0.2,0c3.9-1.9,7-5.1,10.2-7.9c3.3-2.8,7.5-5.7,10-9.2c0.5,0.2,0.9-0.6,0.4-1
			c-6.9-4.9-14.8-8.5-21.9-13.2c-7.2-4.8-13-10.7-18.9-17c-0.3-0.3-0.8-0.1-0.8,0.2c-0.1,0-0.1,0-0.2,0c-6.7,3.4-13,7.4-20,10.4
			c-0.2,0.1-0.3,0.4-0.2,0.6c9.4,16.3,23.2,30.1,40.7,37.3C248.3,266,248.5,265.8,248.6,265.6z M218.3,242.7
			c-1.9-2.3-3.8-4.7-5.5-7.1c-1-1.5-2-3-3-4.6c-1.2-2-1.4-2,0.5-3.3c2.9-1.9,6.5-3,9.5-4.7c2.7-1.5,5.5-3.1,7.9-5.1c0,0,0,0,0,0
			c4.7,6.8,11.6,12.4,18.4,17c7,4.7,14.6,9.6,22.3,13.3c-3.4,1.9-6.4,5.2-9.2,7.8c-3.5,3.1-6.8,6.5-10.9,8.7
			c-0.1,0.1-0.2,0.1-0.2,0.2C236.5,260.1,226.5,252.3,218.3,242.7z"/>
		<path class="st2" d="M229.6,223.4c7.8,9.9,20,17.6,31.2,23.1c0.2,0.1,0.3-0.2,0.1-0.3c-5.8-2.9-11.4-6.2-16.6-10.1
			c-5.2-3.9-9.7-8.5-14.6-12.8C229.6,223.2,229.5,223.3,229.6,223.4z"/>
		<path class="st2" d="M261.8,250.9c0.2,0.1,0.3-0.2,0.1-0.3c-1.6-1-2-2.7-0.7-4.2c0.1-0.1,0-0.2-0.1-0.1
			C259.6,247.6,259.9,250.2,261.8,250.9z"/>
		<path class="st2" d="M261.8,251C261.8,251,261.8,251,261.8,251c-4.3,2.5-8,6.3-11.7,9.6c0.3-1-2.6-0.9-3.1-0.9
			c-0.6,0-3.2,0.3-2.8,1.4c0,0.1,0.2,0.1,0.2,0c0.4-1.4,5.7-1.4,5.5-0.5c0,0.1,0,0.1,0.1,0.1c-0.1,0.1,0.1,0.3,0.2,0.2
			C254.1,257.5,257.8,254.2,261.8,251z"/>
		<path class="st2" d="M226.5,248.8c-5.1-4.7-8.9-10-13-15.5c0-0.1-0.2,0-0.1,0.1c6.2,11.6,18.6,22.4,30.6,27.5c0,0,0,0,0,0
			C237.8,257.3,231.9,253.7,226.5,248.8z"/>
		<path class="st2" d="M213.7,228.9c3.9-1.6,7.9-3.7,11.2-6.3c0.1,0.6,0.8,1.1,1.4,1.3c1,0.4,2.6,0.4,3.2-0.6
			c0.1-0.2-0.1-0.4-0.3-0.2c-0.6,0.5-1.2,0.8-2.1,0.7c-0.7-0.1-2-0.5-1.9-1.4c0,0,0,0,0,0c0,0,0,0,0,0c0-0.1,0-0.2,0.1-0.3
			c0-0.1,0-0.2-0.1-0.1c-0.2,0.2-0.3,0.4-0.3,0.6c-3.7,2.3-7.4,4.5-11.4,6.3c-0.1-0.1-0.3-0.2-0.5-0.3c-0.1,0-0.1,0-0.1,0.1
			c1.3,1.1,1.7,3.1,0.4,4.4c-0.2,0.2,0.1,0.4,0.2,0.3C214.7,232.1,214.9,230,213.7,228.9z"/>
		<path class="st2" d="M236.1,249.2c2-0.6,2.5-2.4,1.5-4.2c-0.3-0.4-0.6-0.7-0.9-1.1c1.3-1.1,2.5-2.3,3.6-3.5c0,0.1,0.1,0.2,0.1,0.3
			c0,0.3-0.9,1.5-1.1,2.2c0,0.1,0,0.2,0.1,0.2c1.9,0.7,2.6-2.4,2.1-3.7c0-0.1-0.1-0.1-0.1-0.2c0.3-0.3,0.5-0.6,0.8-1
			c0.1-0.2,0-0.4-0.2-0.5c-0.2-0.1-0.3-0.2-0.5-0.2c-0.1,0-0.2,0.1-0.2,0.2c0,0-0.2,0.2-0.6,0.5c-0.2-0.3-0.5-0.5-0.8-0.7
			c0.3-0.4,0.7-0.8,0.9-1.2c0-0.1,0-0.1-0.1-0.1c-0.7,0.2-1.4,0.5-2.1,0.8c-1-0.2-2-0.2-2.9,0.1c-2.2,0.7-2.9,2.3-2.4,4.2
			c-1,0.8-2.1,1.7-3,2.7c-0.1-0.7,0-1.4,0.4-1.9c0.3-0.4-0.2-0.9-0.6-0.7c-1.3,0.6-1.1,2.2-0.6,3.5c-0.4,0.6-0.8,1.1-1.1,1.8
			c-0.1,0.2,0.2,0.5,0.4,0.4c0.5-0.2,0.9-0.5,1.3-0.9c0.1,0.2,0.2,0.4,0.4,0.6c0.1,0.1,0.1,0.2,0.2,0.3c-0.3,0.2-0.6,0.5-0.9,0.7
			c-0.6,0.5,0.2,1.4,0.8,0.9c0.3-0.2,0.6-0.5,0.9-0.7C232.8,249.1,234.4,249.7,236.1,249.2z M239.7,239.3c-1.2,1.2-2.6,2.6-2.8,2.8
			c-0.3,0.3-0.7,0.6-1,0.9c-0.4-0.5-0.7-0.9-0.9-1.3c1.2-1,2.7-2,3.9-3.1C239.2,238.7,239.5,239,239.7,239.3z M236.9,238.2
			C236.9,238.2,237,238.2,236.9,238.2c-0.5,0.5-1.2,1-1.7,1.6c0,0,0-0.1,0-0.1C235.3,238.7,235.9,238.2,236.9,238.2z M231,245.5
			c1-0.9,2-1.9,3-2.9c0.2,0.3,0.6,0.7,0.9,1.2c-1.1,0.9-2.2,1.7-3.2,2.5C231.4,246.1,231.2,245.8,231,245.5z M235.6,244.8
			c0.8,1.1,1.4,2.3,0.4,3c-1,0.7-2.4,0.3-3.5-0.5C233.6,246.4,234.6,245.6,235.6,244.8z"/>
	</g>
	<g>
		<path class="st1" d="M189.6,232.2c-0.6-0.9-1.4-1.6-2.3-2c-3-1.4-7.2-1-10.1,0.8c0,0,0,0,0,0c-7.9,1.7-7.6,13.2-1.9,17.1
			c1.2,0.8,2.5,1.3,3.8,1.5c0.7,0.4,1.3,0.6,2,0.8C189.5,252.3,195.8,237.1,189.6,232.2z M187.9,235c2.4,5.3-1.8,12.3-7.6,11.9
			c-0.5-0.2-1-0.5-1.4-0.8c-2.8-1.8-3.6-4-3-7.3c0.3-1.3,0.6-2.9,1.4-4C179.5,231.3,186.1,231.1,187.9,235z"/>
		<g>
			<path class="st2" d="M201,230.1c0.1-0.3-0.1-0.7-0.4-0.8c-7.1-3.6-15.5-4.5-23.2-6.1c-2.5-0.5-4.9-1.1-7.4-1.7c0,0,0,0,0-0.1
				c0.4-0.7,0.4-0.7,0.5-1.5c0.1-0.6-0.3-0.9-0.8-1c-1.9-0.1-3.7-0.5-5.6-0.9c-1.5-0.4-3.3-0.5-4.7-1.3c-0.6-0.3-1.3,0.2-1.3,0.8
				c0,0.8,0.1,1.4,0.3,2.1c-1.4-0.1-2.8-0.1-4.2-0.1c-0.6,0-0.9,0.5-0.8,0.9c-4.1,8.8-5.6,19.4-6.6,29c0,0.3,0.1,0.6,0.4,0.6
				c15.9,2.2,31.8,4.9,47.5,8.2c0.3,0.1,0.7-0.2,0.7-0.5C197.1,248.5,198.7,239.2,201,230.1z M159.7,218.7c1.3,0.5,2.7,0.7,4.1,0.9
				c1.7,0.3,3.4,0.6,5,0.7c0,0.2,0,0.4,0,0.7c0,0,0,0,0,0.1c-3.1-0.7-6.3-1.2-9.4-1.5C159.6,219.4,159.7,219,159.7,218.7z
				 M152.6,250c-1.1-0.2-3.6-0.2-4.3-1.1c-0.7-0.9,0.1-3.4,0.3-4.5c0.3-1.6,0.5-3.1,0.8-4.7c1.3-6.2,3.3-12.2,4.7-18.4
				c0.1,0,0.1,0,0.2,0c3.2-0.1,6.3,0,9.5,0.3c-0.2,0.3-0.2,0.6-0.1,0.9c-1.1,4.7-1.5,9.5-2.5,14.3c-0.5,2.3-1,4.7-1.4,7
				c-0.5,2.3-1.4,4.7-1.5,7.1c-0.4-0.1-0.8-0.1-1.3-0.2C155.6,250.5,154.1,250.3,152.6,250z M158.9,251.1c0.8-2,0.9-4.4,1.3-6.5
				c0.5-2.5,1.1-5.1,1.6-7.6c1.1-5.1,2.8-10,3.6-15.2c0,0,0,0,0,0c8.4,1,16.7,3.1,24.7,5.2c1.3,0.3,2.5,0.7,3.7,1.1
				c0.8,0.3,4.4,1.2,5,2c0.8,1.1-0.1,3-0.4,4.3c-0.3,1.5-0.7,3.1-1,4.6c-1.2,6-2.4,12-3.3,18C182.5,255.3,170.7,253.1,158.9,251.1z"
				/>
			<path class="st2" d="M189.1,230.1c-3.3-2.2-6.9-2.4-10-1.2c-2.5,0.3-4.9,2.2-6.4,4.1c-2.2,2.8-3.2,6.5-2.4,10
				c0.8,3.5,3.6,6.7,7.1,7.8c3.2,1,8,1,10.7-1.1C193.9,245.1,196.1,234.8,189.1,230.1z M188.5,246.8c-4.2,5.2-13.6,3.4-16.2-2.6
				c-1.3-3-0.7-6.6,1-9.5c3.4-3.9,8.9-6.3,13.8-3.8C193.7,234.1,192.4,241.9,188.5,246.8z"/>
			<path class="st2" d="M179.9,232.3c-4.1,0.1-7.1,6.1-6,9.7c1.4,4.6,7.4,6.1,11.3,4.1c4.2-2.1,5.5-6.9,3.6-11.1
				C186.8,230.8,183,230.5,179.9,232.3z M179.7,234c0.1-0.1,0.2-0.1,0.3-0.2c0.5,0.1,0.9,0.4,1.1,0.8c0.5,0.8,0.3,2.1-0.8,2.2
				C178.7,236.9,178.7,234.9,179.7,234z M180.5,242.8c-2.8-0.3-1.7-3.4-0.1-4.9c0.1,0.1,0.3,0.2,0.5,0.1
				C183.5,237,184.6,243.3,180.5,242.8z"/>
			<path class="st2" d="M157.9,250.2c-0.8-0.5-1.5-0.9-2.1-1.6c-0.1-0.1-0.1,0-0.1,0.1c0.5,0.8,1.2,1.5,2.1,1.8
				C158,250.6,158.1,250.3,157.9,250.2z"/>
			<path class="st2" d="M156.6,248.2c0.4,0.2,0.8,0.6,1.3,0.7c0.1,0,0.2-0.1,0.1-0.3c-0.3-0.3-0.9-0.5-1.3-0.7
				C156.5,247.9,156.4,248.1,156.6,248.2z"/>
			<path class="st2" d="M158.2,246.4c0.1-0.1,0.1-0.2,0-0.2c-0.3-0.1-0.6-0.1-0.8-0.4c-0.1-0.2-0.3,0-0.3,0.2
				C157.3,246.3,157.8,246.7,158.2,246.4z"/>
			<path class="st2" d="M159.3,235.3c0-0.1-0.1-0.2-0.2-0.1c-0.2,0-0.4,0.1-0.6,0c-0.2-0.2-0.5,0.1-0.3,0.3
				C158.6,235.7,159.1,235.7,159.3,235.3z"/>
			<path class="st2" d="M190.7,253.7c-0.2-0.3-0.4-0.5-0.6-0.7c-0.1-0.1-0.2,0-0.2,0.1c0.1,0.3,0.2,0.6,0.4,0.9
				c0.2,0.3,0.3,0.6,0.6,0.8c0.2,0.1,0.4,0,0.4-0.2C191.1,254.2,190.9,253.9,190.7,253.7z"/>
			<path class="st2" d="M192,252.8c-0.1-0.2-0.2-0.4-0.3-0.6c0-0.2-0.4-0.2-0.3,0c0,0.5,0.3,1.2,0.8,1.2c0.1,0,0.1-0.1,0.1-0.1
				C192.2,253.1,192.1,253,192,252.8z"/>
			<path class="st2" d="M167.2,225.4c-0.1-0.2-0.3-0.5-0.4-0.7c-0.1-0.2-0.4-0.1-0.4,0.1c0,0,0,0,0,0c0,0,0,0,0,0c0,0,0,0,0,0
				c0.1,0.5,0.3,1.3,0.9,1.4c0.1,0,0.2-0.1,0.2-0.2C167.5,225.8,167.3,225.7,167.2,225.4z"/>
			<path class="st2" d="M168.2,224.6c-0.1-0.2-0.4,0-0.3,0.2c0.1,0.2,0.3,0.4,0.4,0.6c0.1,0.2,0.2,0.4,0.4,0.5
				c0.1,0.1,0.4,0,0.3-0.2C168.9,225.3,168.5,224.9,168.2,224.6z"/>
			<path class="st2" d="M195.7,233.2c-0.2-0.1-0.4,0.1-0.2,0.3c0.4,0.3,0.9,0.8,1.4,1c0.1,0.1,0.3-0.1,0.2-0.2
				C196.7,233.8,196.1,233.5,195.7,233.2z"/>
			<path class="st2" d="M196.3,232.4c0.4,0,0.6,0.2,1,0.3c0.1,0,0.2-0.1,0.1-0.2c-0.2-0.4-0.7-0.5-1.1-0.5
				C196,232.1,196.1,232.4,196.3,232.4z"/>
		</g>
	</g>
	<g>
		<path class="st1" d="M323.5,174.5c-0.4-1.8-2.1-3.4-4-2.6c-1.2,0.5-1.9,1.5-2.3,2.6c-0.9,1.1-1.1,2.6-0.4,3.9
			c0.8,1.6,2.8,2.7,4.5,1.7C322.9,179.2,323.9,176.4,323.5,174.5z"/>
		<path class="st1" d="M328.9,161.5c-1.2-0.3-2.3-0.6-3.5-0.8c-0.2-0.3-0.5-0.4-0.9-0.5c-12-0.8-24-2.1-35.9-3.9
			c-0.7-0.1-1.5,0.3-1.4,1.1c0,0.4,0.1,0.9,0.1,1.3c0,0.2,0.1,0.4,0.2,0.6c-0.3,1-0.6,2.1-0.8,3.1c-0.1,0.3,0.1,0.6,0.4,0.7
			c1.8,0.3,3.7,0.5,5.5,0.7c0.1,0.4,0.4,0.7,0.8,0.8c5.8,0.4,11.6,1.1,17.4,1.8c5.7,0.7,11.6,2,17.4,2c0.7,0,1.2-0.7,1.1-1.4
			c-0.4-1.5-0.3-3,0.2-4.5C329.6,162,329.3,161.6,328.9,161.5z"/>
		<g>
			<path class="st2" d="M330.5,158.1c-14.1-3.2-28.8-3.9-43.2-5.7c-0.5-0.1-1,0.5-0.9,0.9c0.1,1.3,0.2,2.6,0.3,3.9
				c-1.4,3.3-1.8,7.1-2.3,10.6c-0.5,3.8-1,7.6-1,11.4c0,0.3,0.2,0.7,0.6,0.8c14.1,3,28.7,4.3,43,6.2c0.3,0,0.6-0.3,0.6-0.6
				c0.3-8.9,1.1-17.9,3.4-26.6C331,158.5,330.8,158.2,330.5,158.1z M329.6,159.2c-0.1,0.5-0.2,1-0.2,1.6c-6.9-0.7-13.9-1.4-20.8-2.2
				c-6.8-0.8-13.9-2.2-20.8-2.2c0.1-0.7,0.2-1.4,0.3-2.2C302.1,154.9,315.8,157.7,329.6,159.2z M287.8,157c0-0.1,0-0.1,0-0.1
				c6.5,1.6,13.5,1.7,20.1,2.4c7.1,0.8,14.3,1.5,21.4,2.2c-0.3,2.2-0.6,4.3-0.9,6.5c-7.1-0.7-14.1-1.4-21.1-2.2
				c-6.7-0.8-13.5-2.3-20.3-2.6C287.4,161.1,287.8,159.1,287.8,157z M326.9,179.4c-0.1,1.3,0.1,4.2-1,5c-1,0.8-4.1-0.1-5.3-0.3
				c-4-0.4-7.9-0.9-11.9-1.3c-3.7-0.4-7.5-0.8-11.2-1.3c-1.8-0.2-3.6-0.4-5.4-0.6c-1.5-0.2-5.6-0.4-6.6-1.7
				c-0.9-1.2-0.2-3.9-0.1-5.3c0.2-2.3,0.5-4.7,0.8-7c0.2-1,0.4-2.1,0.6-3.1c6.4,1.5,13.2,1.7,19.7,2.4c7.2,0.8,14.5,1.6,21.8,2.3
				C327.8,172.2,327.3,175.8,326.9,179.4z"/>
			<path class="st2" d="M321.2,171.8c0,0-0.1,0-0.1,0c-1-0.7-2.3-0.1-3.3,0.7c-0.8-1.2-1.9-1.9-3.1-1.1c-1.4-0.4-3.1,2.2-3.4,3.3
				c-0.6,2.1,0.9,4.6,3.1,5c0.8,0.1,1.5,0,2.2-0.3c0.3,0.4,0.7,0.8,1.2,1.1c2.1,1.3,4.9,0.1,5.8-2
				C324.6,176.1,323.6,172.9,321.2,171.8z M316.4,175.8c0.1-0.6,0.6-1.6,1.2-2.3c0.9,1.6,0.8,4-0.7,5.3
				C316.5,177.9,316.3,176.8,316.4,175.8z M315.6,179.4c-1.8,0.4-3.6-0.9-4-2.6c-0.2-1.1,0.1-2.1,0.7-3.1c0.4-0.7,1.2-2,2.2-2
				c0,0.1,0.1,0.2,0.2,0.2c0.1,0,0.2,0,0.4,0c0.1,0.1,0.2,0.1,0.3,0.2c0.1,0,0.2,0,0.1-0.1c0,0-0.1-0.1-0.1-0.1
				c0.8,0.1,1.4,0.5,1.9,1c-0.3,0.3-0.5,0.5-0.7,0.8c-1.1,1.6-1.2,3.8-0.2,5.4C316.1,179.3,315.9,179.4,315.6,179.4z M319.7,180.3
				c-1.1,0-2-0.5-2.5-1.3c1-0.8,1.7-2,1.7-3.3c0-0.7-0.3-1.7-0.8-2.6c0.8-0.8,1.8-1.4,2.7-1c0,0.1,0,0.1,0.1,0.2
				c1.3,1.2,2.5,2.4,2.4,4.3C323.2,178.5,321.7,180.3,319.7,180.3z"/>
		</g>
	</g>
	<g>
		<path class="st1" d="M313.4,234.8c-0.1-0.3-0.2-0.7-0.4-1c0-0.6-0.1-0.9-0.6-1.6c-3.3-9.2-6.6-18.3-10.9-27.2
			c-0.3-0.6-1-0.6-1.5-0.4c-1.2,0.6-2.4,1.2-3.5,2c-0.2,0.1-0.4,0.3-0.5,0.6c-0.1,0.1-0.2,0.3-0.2,0.5c3.6,9.9,7.8,19.7,12.2,29.3
			c0.2,0.3,0.6,0.4,0.9,0.2c1.4-0.6,2.7-1.2,4.1-1.8C313.3,235.3,313.5,235.1,313.4,234.8z M300.3,214.9c0,0.1,0.1,0.1,0.1,0.2
			c0,0.1,0,0.1,0,0.2l0.7,1.9c0,0.1,0,0.1,0,0.2c-0.4-0.9-0.8-1.8-1.1-2.7C300.2,214.7,300.2,214.8,300.3,214.9z M308.1,233
			c-0.1,0.2-0.1,0.4-0.1,0.6c-0.2-0.4-0.4-0.9-0.5-1.4C307.7,232.5,307.9,232.7,308.1,233z"/>
		<path class="st1" d="M317.7,230.6c-0.3-1.4-1.5-2.8-2.1-4.1c-1.2-2.4-2.2-4.9-3.2-7.3c-1.9-4.5-3.7-9.1-5.6-13.7
			c-0.5-1.3-1.3-3.3-3-2.3c-0.3,0.2-0.4,0.6-0.3,0.9c0,0.1-0.1,0.2,0,0.3c1,4.6,3.4,9,5.3,13.3c2.3,5.1,4.3,10.4,6.4,15.6
			c0.1,0.2,0.3,0.4,0.5,0.4C317.3,233.5,318,232.3,317.7,230.6z"/>
		<g>
			<path class="st2" d="M315.6,223.5c-0.1,0.6,0.5,1.1,1,0.8c0.5-0.3,0.4-1.1-0.2-1.2c-0.1,0-0.2,0-0.3-0.1c-0.2-0.2-0.6,0-0.6,0.3
				C315.6,223.3,315.7,223.4,315.6,223.5z"/>
			<path class="st2" d="M316.6,227.4c0,0.1,0,0.2,0,0.3c0,0.1,0,0.3,0.1,0.4c0.1,0.4,0.6,0.6,1,0.3c0.4-0.3,0.3-0.8-0.1-1
				c-0.2-0.1-0.4-0.1-0.5-0.2C316.8,227.1,316.6,227.2,316.6,227.4z"/>
			<path class="st2" d="M319.9,228.7c-0.3-4.1-1.8-8.2-3.5-12c-1-2.4-2.1-4.8-3.2-7.2c-1-2.2-1.8-5.1-3.4-7.1
				c-1.6-2.1-3.7-1.2-5.7-0.2c-0.4,0.1-0.9,0.3-1.3,0.4c-0.3,0.1-0.6,0.3-0.9,0.4c-1.4-2.6-2.4-5.4-4.3-7.7c-0.2-0.3-0.7-0.2-1,0
				c-4.3,4.3-8.9,8.4-13.5,12.4c-2.2,1.9-4.4,3.9-6.5,6c-1.5,1.5-3.3,2.9-4.1,4.8c0,0-0.1,0-0.1,0.1c-0.3,0.2-0.4,0.5-0.2,0.8
				c-0.1,0.1-0.2,0.3-0.1,0.4c0.7,4.7,3,9.3,4.9,13.6c2.1,4.8,4.4,9.4,6.5,14.2c0.1,0.2,0.5,0.4,0.7,0.3
				c10.1-3.2,19.8-8.1,29.4-12.6C317,233.8,320.2,232.9,319.9,228.7z M301.1,203.5c-1.7,0.9-3.4,1.9-5.1,2.9
				c-0.6,0.3-1.1,0.6-1.7,0.9c2-1.9,4-3.7,6.1-5.4C300.7,202.4,301,202.9,301.1,203.5z M300.4,201.6c-2.2,1.9-4.3,3.8-6.4,5.8
				c-1.6,0.8-3.2,1.6-4.8,2.4c-0.1,0.1-0.3,0.1-0.4,0.2c3.5-3.3,7.2-6.6,10.8-9.7C299.9,200.7,300.1,201.2,300.4,201.6z M278,215
				c2.1-2.1,4.1-4.2,6.1-6.3c4-4.2,8.4-8.2,13-11.8c0.9,1.1,1.7,2.2,2.5,3.3c-3.8,3.2-7.4,6.5-11,10c-3.7,1.6-7.9,3.4-11.1,5.8
				c-0.3,0.1-0.6,0.3-0.8,0.4C277,215.9,277.5,215.4,278,215z M316.6,232.9c-4,2.9-9.3,4.7-13.9,6.7c-5.1,2.2-10.3,4.4-15.7,6.1
				c-3.3,1.1-3.6-0.6-4.9-3.4c-1.3-2.8-2.5-5.7-3.6-8.6c-1.7-4.3-2.9-9-5-13.1c0.1-0.1,0.3-0.2,0.4-0.3c0.1,0,0.1-0.1,0.1-0.1
				c0,0,0,0,0,0c0,0,0.1-0.1,0.1-0.1c0,0,0-0.1,0-0.1c1.2-0.8,2.3-1.7,3.5-2.5c3.8-2,7.6-4.2,11.4-6.3c0.1,0,0.2-0.1,0.3-0.1
				c2.8-1.3,5.5-2.5,8.2-3.9c2.8-1.5,5.8-3.5,9-3.6c0.9,0.2,1.7,0.5,2.6,0.7c0.7,0.6,1.4,2.8,1.8,3.6c1.2,2.4,2.5,4.7,3.7,7.1
				C317.1,219.6,322.4,228.7,316.6,232.9z"/>
			<path class="st2" d="M276.1,219.7c-0.2,0.1-0.4,0.3-0.6,0.4c-0.2,0.2-0.2,0.4-0.1,0.6c0.1,0.1,0.3,0.4,0.5,0.3
				c0.1,0,0.1-0.1,0.2-0.1c0.3,0,0.5-0.1,0.8-0.3C277.4,220.2,276.7,219.3,276.1,219.7z"/>
			<path class="st2" d="M279.7,218c0,0-0.1,0-0.1,0c-0.3,0-0.5,0.2-0.5,0.4c0,0,0,0,0,0c-0.2,0.2-0.2,0.6,0.2,0.6c0,0,0,0,0.1,0
				c0.2,0.1,0.5,0.2,0.7,0c0,0,0.1-0.1,0.1-0.1C280.3,218.7,280.2,218,279.7,218z"/>
			<path class="st2" d="M282.4,216.1c-0.2,0.1-0.4,0.5-0.2,0.7c0.1,0.1,0.3,0.2,0.3,0.3c0,0.1,0.1,0.1,0.2,0.1c0,0,0,0,0.1,0
				c0.3,0.1,0.7,0.1,0.9-0.2c0.2-0.3,0.2-0.7-0.1-0.9C283.2,215.9,282.8,215.9,282.4,216.1z"/>
			<path class="st2" d="M285.7,214.8c-0.1,0.2-0.1,0.3-0.1,0.5c0,0.1,0.1,0.2,0.2,0.2c0.1,0,0.1,0,0.2,0c0.4,0.2,0.9-0.1,0.8-0.5
				C286.6,214.5,285.9,214.3,285.7,214.8z"/>
			<path class="st2" d="M289.5,212.6c-0.4,0.1-0.5,0.2-0.6,0.6c-0.1,0.1,0,0.3,0.1,0.4c0.3,0.2,0.5,0.2,0.8,0
				C290.4,213.3,290,212.5,289.5,212.6z"/>
			<path class="st2" d="M293.7,210.5C293.7,210.5,293.7,210.5,293.7,210.5c-0.3-0.2-0.5-0.1-0.7,0c-0.2,0.2-0.2,0.4-0.2,0.7
				c0,0.2,0.2,0.3,0.4,0.2c0,0,0.1,0,0.1,0c0.1,0,0.2,0,0.2,0c0.2,0,0.3-0.2,0.3-0.3C294,210.9,293.9,210.6,293.7,210.5z"/>
			<path class="st2" d="M297.2,208.6c-0.2,0-0.5,0.2-0.5,0.4l-0.1,0.2c-0.1,0.1,0,0.4,0.2,0.4c0.1,0,0.2,0,0.3,0.1
				c0.2,0.1,0.4,0,0.6-0.1C298,209.2,297.8,208.6,297.2,208.6z"/>
			<path class="st2" d="M301.7,207.1c-0.2-0.4-0.8-0.5-1.1-0.1c0,0,0,0.1-0.1,0.1c-0.2,0.3,0,0.7,0.3,0.8c0,0,0.1,0,0.1,0
				C301.5,208,301.9,207.6,301.7,207.1z"/>
			<path class="st2" d="M305.1,205.2c-0.1,0-0.1,0.1-0.2,0.1c-0.1,0.1-0.3,0.3-0.3,0.4c0,0,0,0.1,0,0.1c-0.1,0.1,0.1,0.3,0.2,0.3
				c0,0,0,0,0,0c0,0,0.1,0.1,0.2,0.1c0.4,0.3,1,0.1,1-0.4C306.1,205.4,305.5,204.9,305.1,205.2z"/>
			<path class="st2" d="M308.4,207.2c0.2-0.2,0.2-0.5,0-0.7c-0.1-0.1-0.2-0.1-0.3-0.1c-0.1,0-0.4,0.1-0.2,0c-0.2,0-0.2,0.1-0.3,0.3
				c0-0.2,0,0.1,0,0.2c0,0.1,0.1,0.3,0.1,0.3C307.9,207.4,308.2,207.4,308.4,207.2z"/>
			<path class="st2" d="M309.7,209.9c0.3,0.7,1.5,0.1,1.1-0.6c-0.2-0.4-0.6-0.5-1-0.4c-0.3,0.1-0.4,0.4-0.3,0.6
				C309.6,209.6,309.6,209.8,309.7,209.9z"/>
			<path class="st2" d="M311.9,212.5c-0.2-0.1-0.3-0.1-0.5-0.2c-0.2-0.1-0.5,0.1-0.4,0.4c0.1,0.1,0.1,0.3,0.2,0.5
				C311.7,213.8,312.6,212.9,311.9,212.5z"/>
			<path class="st2" d="M313.6,215.7c-0.4-0.5-1.2-0.2-1,0.4c0,0,0,0.1,0,0.1c0.2,0.9,1.6,0.2,1.1-0.5
				C313.6,215.7,313.6,215.7,313.6,215.7z"/>
			<path class="st2" d="M314.4,219.1c0,0-0.1,0.1-0.1,0.2c0,0.1,0,0.1,0,0.1c0,0.1,0,0.2,0,0.2c0,0.1,0,0.3,0.1,0.4
				c0.1,0.2,0.4,0.4,0.7,0.3l0.1,0c0.2-0.1,0.5-0.4,0.4-0.7c-0.1-0.3-0.3-0.4-0.6-0.5c0,0,0,0,0,0c-0.1,0-0.1,0,0,0
				c-0.1-0.1-0.2-0.1-0.2,0C314.5,219,314.4,219,314.4,219.1z"/>
			<path class="st2" d="M315.8,230c-0.3,0.1-0.4,0.2-0.5,0.4c-0.4,0.7,0.9,1.2,1,0.3c0-0.3-0.1-0.4-0.2-0.6
				C316,230,315.9,230,315.8,230z"/>
			<path class="st2" d="M313.6,232.9c0-0.2-0.3-0.5-0.4-0.3c0,0,0,0.1,0,0.1c-0.4,0-0.7,0.6-0.2,0.9
				C313.3,233.8,313.8,233.4,313.6,232.9C313.6,232.9,313.6,232.9,313.6,232.9z"/>
			<path class="st2" d="M309.5,234.1c-0.2,0.1-0.3,0.2-0.4,0.4c-0.4,0.6,0.4,1.4,1,1c0.2-0.1,0.3-0.2,0.4-0.4
				C310.8,234.4,310.1,233.7,309.5,234.1z"/>
			<path class="st2" d="M305.7,236.1c-0.1-0.1-0.2-0.1-0.3-0.1c-0.1,0-0.1,0-0.2,0c-0.3,0.1-0.5,0.5-0.3,0.8c0,0,0,0.1,0.1,0.1
				c0.1,0.2,0.3,0.3,0.5,0.2c0,0,0.1,0,0.1,0c0.4-0.1,0.5-0.6,0.2-0.9C305.8,236.2,305.8,236.1,305.7,236.1z"/>
			<path class="st2" d="M301.7,237.5c-0.4,0.1-0.9,0.7-0.5,1.1c0.4,0.4,1-0.1,1.1-0.5C302.3,237.7,302,237.4,301.7,237.5z"/>
			<path class="st2" d="M298.2,238.9c-0.1,0-0.1,0.1-0.2,0.1c-0.8,0.6,0.2,1.6,0.8,0.8c0.1-0.1,0.1-0.1,0.1-0.2
				C299.3,239.2,298.7,238.6,298.2,238.9z"/>
			<path class="st2" d="M295.4,240c-0.1,0-0.2,0-0.3,0c-0.6,0-1,0.6-0.7,1.1c0.3,0.5,1,0.5,1.3,0c0,0,0,0.1-0.1,0.1
				C296.1,240.9,295.9,240.1,295.4,240z"/>
			<path class="st2" d="M291.2,241.7c-0.9,0-0.9,1.3,0,1.3C292.1,243,292.1,241.7,291.2,241.7z"/>
			<path class="st2" d="M287.7,242.8c-0.8,0-0.8,1.3,0,1.3C288.5,244.1,288.5,242.8,287.7,242.8z"/>
			<path class="st2" d="M285.7,243.9c0-0.2-0.3-0.3-0.4-0.2c-0.5,0.3,0.2,1.1,0.5,0.5C286,244.1,285.9,243.9,285.7,243.9z"/>
			<path class="st2" d="M308.5,225.9c-0.1,0.2-0.2,0.4-0.3,0.7c0,0.3-0.1,0.5-0.1,0.8c0,0.4-0.3,1,0.1,1.4c0,0,0.1,0.1,0.2,0
				c0.4-0.3,0.3-0.8,0.3-1.3c0-0.3,0-0.6,0-0.9c0-0.2-0.1-0.4-0.1-0.6C308.7,225.8,308.6,225.8,308.5,225.9z"/>
			<path class="st2" d="M310.4,225.3c0,0.5,0,1.1,0.2,1.5c0.1,0.3,0.5,0.2,0.5-0.1c0.1-0.5-0.1-1.1-0.2-1.5
				C310.8,225,310.4,225.1,310.4,225.3z"/>
			<path class="st2" d="M312.9,225.6c0-0.2,0-0.4,0-0.6c0-0.2-0.3-0.2-0.3,0c0,0.2,0,0.4,0,0.6C312.7,225.7,312.9,225.7,312.9,225.6
				z"/>
			<path class="st2" d="M308.3,217.1c-0.2-0.2-0.4-0.4-0.7-0.6c-0.2-0.2-0.4,0.1-0.2,0.3c0.3,0.2,0.5,0.3,0.8,0.5
				C308.2,217.3,308.3,217.2,308.3,217.1z"/>
		</g>
	</g>
	<g>
		<path class="st1" d="M148.1,154.3c-0.1-0.5-1-0.4-0.9,0.1c0.1,1.1,0.2,2.3,0.1,3.4c0,0.9,0.1,1.8-0.9,2.3
			c-0.3,0.2-0.8,0.1-1.1,0.2c-0.2,0-0.3,0.1-0.4,0.1c0-1,0-2-0.1-3c-0.1-0.7-0.2-1.4-1-1.5c-0.4-0.1-0.7,0.2-0.7,0.6
			c0,0.9-0.1,1.8-0.1,2.7c0,0.4,0,0.9-0.1,1.3c0,0,0,0,0,0c-0.2-0.1-0.5-0.1-0.7-0.2c-0.6,0.1-1,0-1.3-0.5c-0.2-0.5-0.3-1.2-0.4-1.8
			c0-0.2,0-0.3,0-0.5c0-0.9,0.1-1.8,0.1-2.7c0-0.1,0-0.2-0.1-0.3c0-0.1,0-0.2-0.1-0.3c-0.1-0.1-0.2-0.2-0.3-0.2
			c-1.8,0.2-1.6,2.8-1.5,4c0.1,1.9,0,4,2.1,4.6c0.7,0.2,2,0.2,2.5-0.3c0.1,0,0.2-0.1,0.2-0.1c0,0.6-0.1,1.1-0.1,1.3
			c0,0.7,1.2,0.9,1.3,0.2c0-0.1,0-0.1,0-0.2c0,0,0,0,0,0c0,0,0,0,0,0c0-0.3,0-0.6,0-0.8c1.6,0.1,3.2-0.2,3.8-1.9
			C149.2,158.8,148.6,156.2,148.1,154.3z"/>
		<g>
			<path class="st1" d="M235.2,202.5L235.2,202.5c-0.3,0-0.5,0-0.7,0c-0.2,0-0.3-0.2-0.3-0.4c0-0.2,0.2-0.3,0.4-0.3c0,0,0,0,0,0
				c0.2,0,0.5,0,0.7,0c0.2,0,0.4,0.2,0.4,0.4S235.4,202.5,235.2,202.5z M237.4,202.3c-0.2,0-0.3-0.1-0.3-0.3c0-0.2,0.1-0.4,0.3-0.4
				c0.2,0,0.5-0.1,0.7-0.1c0.2,0,0.4,0.1,0.4,0.3c0,0.2-0.1,0.4-0.3,0.4C237.9,202.2,237.7,202.3,237.4,202.3
				C237.4,202.3,237.4,202.3,237.4,202.3z M232.4,202.3C232.4,202.3,232.4,202.3,232.4,202.3l-0.7-0.1c-0.2,0-0.3-0.2-0.3-0.4
				c0-0.2,0.2-0.3,0.4-0.3l0.7,0.1c0.2,0,0.3,0.2,0.3,0.4C232.7,202.2,232.6,202.3,232.4,202.3z M229.6,202.1
				C229.6,202.1,229.6,202.1,229.6,202.1c-0.2,0-0.3,0-0.5,0l-0.3,0c-0.2,0-0.3-0.2-0.3-0.4c0-0.2,0.2-0.3,0.4-0.3c0,0,0,0,0,0
				l0.3,0c0.1,0,0.3,0,0.4,0c0.2,0,0.3,0.2,0.3,0.4C229.9,201.9,229.8,202.1,229.6,202.1z M226.8,202C226.8,202,226.7,202,226.8,202
				l-0.7,0c-0.2,0-0.3-0.2-0.3-0.4c0-0.2,0.1-0.4,0.4-0.3l0.7,0c0.2,0,0.4,0.2,0.4,0.4C227.1,201.8,226.9,202,226.8,202z
				 M223.9,201.9C223.9,201.9,223.9,201.9,223.9,201.9l-0.7,0c-0.2,0-0.3-0.2-0.3-0.4c0-0.2,0.1-0.3,0.4-0.3l0.7,0
				c0.2,0,0.4,0.2,0.4,0.4C224.3,201.7,224.1,201.9,223.9,201.9z M221.1,201.8C221.1,201.8,221.1,201.8,221.1,201.8l-0.7,0
				c-0.2,0-0.3-0.2-0.3-0.4c0-0.2,0.2-0.3,0.4-0.3l0.7,0c0.2,0,0.3,0.2,0.3,0.4C221.5,201.6,221.3,201.8,221.1,201.8z M218.3,201.7
				C218.3,201.7,218.3,201.7,218.3,201.7l-0.7,0c-0.2,0-0.3-0.2-0.3-0.4c0-0.2,0.2-0.3,0.4-0.3c0,0,0,0,0,0l0.7,0
				c0.2,0,0.3,0.2,0.3,0.4C218.6,201.5,218.5,201.7,218.3,201.7z M215.5,201.6C215.5,201.6,215.5,201.6,215.5,201.6l-0.7,0
				c-0.2,0-0.3-0.2-0.3-0.4c0-0.2,0.2-0.3,0.4-0.3l0.7,0c0.2,0,0.4,0.2,0.4,0.4C215.8,201.4,215.7,201.6,215.5,201.6z M240,201.5
				c-0.1,0-0.3-0.1-0.3-0.2c-0.1-0.2,0-0.4,0.1-0.5c0.2-0.1,0.4-0.2,0.6-0.3c0.2-0.1,0.4-0.1,0.5,0.1c0.1,0.2,0.1,0.4-0.1,0.5
				c-0.2,0.1-0.4,0.3-0.6,0.4C240.2,201.5,240.1,201.5,240,201.5z M212.6,201.5C212.6,201.5,212.6,201.5,212.6,201.5l-0.7,0
				c-0.2,0-0.3-0.2-0.3-0.4c0-0.2,0.2-0.3,0.4-0.3c0,0,0,0,0,0l0.7,0c0.2,0,0.3,0.2,0.3,0.4C213,201.3,212.8,201.5,212.6,201.5z
				 M209.8,201.4C209.8,201.4,209.8,201.4,209.8,201.4l-0.7,0c-0.2,0-0.3-0.2-0.3-0.4c0-0.2,0.2-0.3,0.4-0.3l0.7,0
				c0.2,0,0.3,0.2,0.3,0.4C210.2,201.2,210,201.4,209.8,201.4z M207,201.2C207,201.2,207,201.2,207,201.2l-0.7,0
				c-0.2,0-0.3-0.2-0.3-0.4c0-0.2,0.2-0.3,0.4-0.3l0.7,0c0.2,0,0.4,0.2,0.4,0.4C207.3,201.1,207.2,201.2,207,201.2z M204.2,201.1
				C204.2,201.1,204.2,201.1,204.2,201.1l-0.7,0c-0.2,0-0.3-0.2-0.3-0.4c0-0.2,0.2-0.3,0.4-0.3l0.7,0c0.2,0,0.3,0.2,0.3,0.4
				C204.5,201,204.4,201.1,204.2,201.1z M201.3,201C201.3,201,201.3,201,201.3,201l-0.7,0c-0.2,0-0.3-0.2-0.3-0.4
				c0-0.2,0.1-0.4,0.4-0.3l0.7,0c0.2,0,0.3,0.2,0.3,0.4C201.7,200.9,201.5,201,201.3,201z M198.5,200.9
				C198.5,200.9,198.5,200.9,198.5,200.9l-0.7,0c-0.2,0-0.3-0.2-0.3-0.4c0-0.2,0.2-0.3,0.4-0.3l0.7,0c0.2,0,0.4,0.2,0.4,0.4
				C198.9,200.7,198.7,200.9,198.5,200.9z M195.7,200.8C195.7,200.8,195.7,200.8,195.7,200.8l-0.7,0c-0.2,0-0.3-0.2-0.3-0.4
				c0-0.2,0.1-0.3,0.4-0.3l0.7,0c0.2,0,0.3,0.2,0.3,0.4C196,200.6,195.9,200.8,195.7,200.8z M192.9,200.7
				C192.9,200.7,192.9,200.7,192.9,200.7l-0.7,0c-0.2,0-0.3-0.2-0.3-0.4c0-0.2,0.2-0.3,0.4-0.3l0.7,0c0.2,0,0.3,0.2,0.3,0.4
				C193.2,200.5,193.1,200.7,192.9,200.7z M190.1,200.5C190,200.5,190,200.5,190.1,200.5l-0.7,0c-0.2,0-0.3-0.2-0.3-0.4
				c0-0.2,0.2-0.4,0.4-0.3l0.7,0c0.2,0,0.3,0.2,0.3,0.4C190.4,200.4,190.2,200.5,190.1,200.5z M187.2,200.4
				C187.2,200.4,187.2,200.4,187.2,200.4l-0.7,0c-0.2,0-0.3-0.2-0.3-0.4c0-0.2,0.2-0.4,0.4-0.3l0.7,0c0.2,0,0.3,0.2,0.3,0.4
				C187.6,200.2,187.4,200.4,187.2,200.4z M184.4,200.3C184.4,200.3,184.4,200.3,184.4,200.3l-0.7,0c-0.2,0-0.3-0.2-0.3-0.4
				c0-0.2,0.2-0.3,0.4-0.3l0.7,0c0.2,0,0.3,0.2,0.3,0.4C184.7,200.1,184.6,200.3,184.4,200.3z M181.6,200.2
				C181.6,200.2,181.6,200.2,181.6,200.2l-0.7,0c-0.2,0-0.4-0.2-0.3-0.4c0-0.2,0.2-0.3,0.4-0.3c0,0,0,0,0,0l0.7,0
				c0.2,0,0.4,0.2,0.3,0.4C181.9,200,181.8,200.2,181.6,200.2z M172.4,200.1c-0.2,0-0.4-0.2-0.4-0.4c0-0.2,0.2-0.4,0.4-0.4l0.7,0
				c0,0,0,0,0,0c0.2,0,0.4,0.2,0.4,0.4c0,0.2-0.2,0.4-0.4,0.4L172.4,200.1L172.4,200.1z M170.3,200.1l0-0.4L170.3,200.1z
				 M170.3,200.1l-0.7,0c-0.2,0-0.4-0.2-0.4-0.4c0-0.2,0.2-0.4,0.4-0.4c0,0,0,0,0,0l0.7,0l0,0.4L170.3,200.1z M175.2,200.1
				c-0.2,0-0.4-0.2-0.4-0.4c0-0.2,0.2-0.4,0.4-0.4l0.7,0c0,0,0,0,0,0c0.2,0,0.4,0.2,0.4,0.4c0,0.2-0.2,0.4-0.4,0.4L175.2,200.1
				L175.2,200.1z M178.8,200.1L178.8,200.1l-0.7,0c0,0,0,0,0,0c-0.2,0-0.4-0.2-0.4-0.4c0-0.2,0.2-0.4,0.4-0.4l0.7,0
				c0.2,0,0.4,0.2,0.4,0.4C179.1,200,178.9,200.1,178.8,200.1z M167.4,200.1C167.4,200.1,167.4,200.1,167.4,200.1l-0.7,0
				c-0.2,0-0.3-0.2-0.3-0.4c0-0.2,0.2-0.3,0.4-0.3l0.7,0c0.2,0,0.4,0.2,0.3,0.4C167.8,200,167.6,200.1,167.4,200.1z M164.6,200
				C164.6,200,164.6,200,164.6,200l-0.7,0c-0.2,0-0.3-0.2-0.3-0.4c0-0.2,0.2-0.4,0.4-0.3l0.7,0c0.2,0,0.3,0.2,0.3,0.4
				C165,199.9,164.8,200,164.6,200z M161.8,199.8C161.8,199.8,161.8,199.8,161.8,199.8c-0.3,0-0.5-0.1-0.8-0.1
				c-0.2,0-0.3-0.2-0.3-0.4c0-0.2,0.2-0.3,0.4-0.3c0.2,0,0.4,0.1,0.7,0.1c0.2,0,0.3,0.2,0.3,0.4C162.1,199.7,162,199.8,161.8,199.8z
				 M242.2,199.7c-0.1,0-0.2,0-0.2-0.1c-0.2-0.1-0.2-0.3-0.1-0.5c0.1-0.2,0.3-0.4,0.4-0.5c0.1-0.2,0.3-0.2,0.5-0.1
				c0.2,0.1,0.2,0.3,0.1,0.5c-0.1,0.2-0.3,0.4-0.4,0.6C242.4,199.7,242.3,199.7,242.2,199.7z M159.1,199c-0.1,0-0.1,0-0.1,0
				c-0.2-0.1-0.4-0.2-0.7-0.3c-0.2-0.1-0.2-0.3-0.1-0.5c0.1-0.2,0.3-0.2,0.5-0.1c0.2,0.1,0.4,0.2,0.6,0.3c0.2,0.1,0.3,0.3,0.2,0.5
				C159.4,198.9,159.2,199,159.1,199z M156.8,197.4c-0.1,0-0.2,0-0.2-0.1c-0.2-0.2-0.3-0.4-0.5-0.5c-0.1-0.1-0.1-0.4,0-0.5
				c0.1-0.1,0.4-0.1,0.5,0c0.1,0.2,0.3,0.3,0.5,0.5c0.1,0.1,0.1,0.4,0,0.5C157,197.3,156.9,197.4,156.8,197.4z M243.6,197.3
				c0,0-0.1,0-0.1,0c-0.2-0.1-0.3-0.3-0.2-0.5c0.1-0.2,0.2-0.4,0.3-0.6c0.1-0.2,0.3-0.3,0.5-0.2c0.2,0.1,0.3,0.3,0.2,0.5
				c-0.1,0.2-0.2,0.4-0.3,0.7C243.9,197.2,243.8,197.3,243.6,197.3z M155.2,195.1c-0.1,0-0.3-0.1-0.3-0.2c-0.1-0.2-0.2-0.4-0.3-0.7
				c-0.1-0.2,0-0.4,0.2-0.5c0.2-0.1,0.4,0,0.5,0.2c0.1,0.2,0.2,0.4,0.3,0.6c0.1,0.2,0,0.4-0.2,0.5
				C155.3,195.1,155.2,195.1,155.2,195.1z M244.6,194.6C244.6,194.6,244.6,194.6,244.6,194.6c-0.3-0.1-0.4-0.3-0.3-0.4
				c0.1-0.2,0.1-0.4,0.2-0.7c0-0.2,0.2-0.3,0.4-0.3c0.2,0,0.3,0.2,0.3,0.4c-0.1,0.2-0.1,0.5-0.2,0.7
				C244.9,194.5,244.8,194.6,244.6,194.6z M154.3,192.4c-0.2,0-0.3-0.1-0.3-0.3c0-0.2-0.1-0.5-0.1-0.7c0-0.2,0.1-0.4,0.3-0.4
				c0.2,0,0.4,0.1,0.4,0.3c0,0.2,0.1,0.5,0.1,0.7C154.7,192.2,154.5,192.4,154.3,192.4C154.3,192.4,154.3,192.4,154.3,192.4z
				 M245.2,191.9C245.1,191.9,245.1,191.9,245.2,191.9c-0.2,0-0.4-0.2-0.4-0.4c0-0.2,0.1-0.5,0.1-0.7c0-0.2,0.2-0.3,0.4-0.3
				c0.2,0,0.3,0.2,0.3,0.4c0,0.2,0,0.5-0.1,0.7C245.5,191.7,245.3,191.9,245.2,191.9z M154,189.6c-0.2,0-0.3-0.1-0.4-0.3l0-0.7
				c0-0.2,0.1-0.4,0.3-0.4c0.2,0,0.4,0.1,0.4,0.3l0,0.7C154.4,189.4,154.2,189.6,154,189.6C154,189.6,154,189.6,154,189.6z
				 M245.4,189.1C245.4,189.1,245.4,189.1,245.4,189.1c-0.2,0-0.4-0.2-0.4-0.4c0-0.2,0-0.5,0-0.7c0-0.2,0.2-0.4,0.4-0.4c0,0,0,0,0,0
				c0.2,0,0.4,0.2,0.4,0.4c0,0.2,0,0.5,0,0.7C245.7,188.9,245.6,189.1,245.4,189.1z M153.9,186.8c-0.2,0-0.3-0.2-0.4-0.3l0-0.7
				c0-0.2,0.2-0.4,0.3-0.4c0,0,0,0,0,0c0.2,0,0.4,0.2,0.4,0.3l0,0.7C154.2,186.6,154.1,186.8,153.9,186.8
				C153.9,186.8,153.9,186.8,153.9,186.8z M245.3,186.2c-0.2,0-0.3-0.1-0.4-0.3c0-0.2,0-0.5,0-0.7c0-0.2,0.1-0.4,0.3-0.4
				c0.2,0,0.4,0.1,0.4,0.3c0,0.2,0,0.5,0,0.7C245.7,186.1,245.5,186.2,245.3,186.2C245.3,186.2,245.3,186.2,245.3,186.2z M153.8,184
				C153.8,184,153.8,184,153.8,184c-0.2,0-0.4-0.2-0.4-0.4l0-0.7c0-0.2,0.2-0.4,0.4-0.4c0,0,0,0,0,0c0.2,0,0.4,0.2,0.4,0.4l0,0.7
				C154.2,183.8,154,184,153.8,184z M245.1,183.4c-0.2,0-0.3-0.1-0.4-0.3l-0.1-0.7c0-0.2,0.1-0.4,0.3-0.4c0.2,0,0.4,0.1,0.4,0.3
				l0.1,0.7C245.5,183.2,245.4,183.4,245.1,183.4C245.2,183.4,245.2,183.4,245.1,183.4z M153.9,181.1
				C153.9,181.1,153.9,181.1,153.9,181.1c-0.2,0-0.4-0.2-0.4-0.4l0-0.7c0-0.2,0.2-0.3,0.4-0.3c0,0,0,0,0,0c0.2,0,0.4,0.2,0.3,0.4
				l0,0.7C154.2,181,154.1,181.1,153.9,181.1z M244.9,180.6c-0.2,0-0.3-0.1-0.4-0.3l-0.1-0.7c0-0.2,0.1-0.4,0.3-0.4
				c0.2,0,0.4,0.1,0.4,0.3l0.1,0.7C245.3,180.4,245.1,180.6,244.9,180.6C244.9,180.6,244.9,180.6,244.9,180.6z M153.9,178.3
				C153.9,178.3,153.9,178.3,153.9,178.3c-0.2,0-0.4-0.2-0.4-0.4l0-0.7c0-0.2,0.2-0.3,0.4-0.3c0.2,0,0.3,0.2,0.3,0.4l0,0.7
				C154.3,178.2,154.1,178.3,153.9,178.3z M244.7,177.8c-0.2,0-0.3-0.1-0.4-0.3c0-0.2,0-0.5,0-0.7c0-0.2,0.1-0.4,0.3-0.4
				c0.2,0,0.4,0.1,0.4,0.3c0,0.2,0,0.5,0,0.7C245,177.6,244.9,177.8,244.7,177.8C244.7,177.8,244.7,177.8,244.7,177.8z M153.8,175.5
				c-0.2,0-0.3-0.1-0.4-0.3c0-0.2-0.1-0.5-0.1-0.7c0-0.2,0.1-0.4,0.3-0.4c0.2,0,0.4,0.1,0.4,0.3c0,0.2,0.1,0.5,0.1,0.7
				C154.2,175.3,154,175.5,153.8,175.5C153.8,175.5,153.8,175.5,153.8,175.5z M244.6,175c-0.2,0-0.3-0.2-0.4-0.3l0-0.7
				c0-0.2,0.2-0.4,0.3-0.4c0,0,0,0,0,0c0.2,0,0.4,0.2,0.4,0.3l0,0.7C244.9,174.8,244.8,175,244.6,175C244.6,175,244.6,175,244.6,175
				z M153.5,172.7c-0.2,0-0.3-0.1-0.4-0.3c0-0.2,0-0.5,0-0.7c0-0.2,0.1-0.4,0.3-0.4c0.2,0,0.4,0.1,0.4,0.3c0,0.2,0,0.5,0,0.7
				C153.9,172.5,153.7,172.7,153.5,172.7C153.5,172.7,153.5,172.7,153.5,172.7z M244.5,172.1c-0.2,0-0.4-0.2-0.4-0.4l0-0.7
				c0-0.2,0.2-0.4,0.4-0.4c0,0,0,0,0,0c0.2,0,0.4,0.2,0.4,0.4l0,0.7C244.9,172,244.7,172.1,244.5,172.1
				C244.5,172.1,244.5,172.1,244.5,172.1z M153.4,169.9c-0.2,0-0.3-0.2-0.4-0.3l0-0.7c0-0.2,0.2-0.4,0.3-0.4c0,0,0,0,0,0
				c0.2,0,0.3,0.2,0.4,0.3l0,0.7C153.7,169.7,153.6,169.9,153.4,169.9C153.4,169.9,153.4,169.9,153.4,169.9z M244.1,169l0-0.7
				c0-0.2,0.2-0.4,0.4-0.4c0.2,0,0.4,0.2,0.4,0.4l0,0.7L244.1,169z M153.3,167c-0.2,0-0.4-0.2-0.4-0.4l0-0.7c0-0.2,0.2-0.4,0.4-0.4
				c0.2,0,0.4,0.2,0.4,0.4l0,0.7C153.7,166.9,153.5,167,153.3,167C153.3,167,153.3,167,153.3,167z M244.5,166.5
				c-0.2,0-0.4-0.2-0.4-0.4l0-0.7c0-0.2,0.2-0.4,0.4-0.4c0.2,0,0.4,0.2,0.4,0.4l0,0.7C244.8,166.3,244.7,166.5,244.5,166.5z
				 M153.3,164.2c-0.2,0-0.4-0.2-0.4-0.4l0-0.7c0-0.2,0.2-0.4,0.4-0.4c0,0,0,0,0,0c0.2,0,0.4,0.2,0.4,0.4l0,0.7
				C153.7,164.1,153.5,164.2,153.3,164.2C153.3,164.2,153.3,164.2,153.3,164.2z M244.5,163.7c-0.2,0-0.4-0.2-0.4-0.4l0-0.7
				c0-0.2,0.2-0.4,0.4-0.4c0,0,0,0,0,0c0.2,0,0.4,0.2,0.4,0.4l0,0.7C244.8,163.5,244.7,163.7,244.5,163.7L244.5,163.7z M153.3,161.4
				c-0.2,0-0.4-0.2-0.4-0.4l0-0.7c0-0.2,0.2-0.4,0.4-0.4c0,0,0,0,0,0c0.2,0,0.4,0.2,0.4,0.4l0,0.7
				C153.7,161.2,153.5,161.4,153.3,161.4C153.3,161.4,153.3,161.4,153.3,161.4z M244.5,160.8c-0.2,0-0.4-0.2-0.4-0.3l0-0.7
				c0-0.2,0.2-0.4,0.3-0.4c0.2,0,0.4,0.2,0.4,0.3l0,0.7C244.8,160.7,244.7,160.8,244.5,160.8C244.5,160.8,244.5,160.8,244.5,160.8z
				 M153.3,158.6c-0.2,0-0.4-0.2-0.4-0.3l0-0.7c0-0.2,0.2-0.4,0.4-0.4c0,0,0,0,0,0c0.2,0,0.4,0.2,0.4,0.4l0,0.7
				C153.6,158.4,153.5,158.6,153.3,158.6C153.3,158.6,153.3,158.6,153.3,158.6z M244.4,158c-0.2,0-0.3-0.2-0.4-0.3l0-0.7
				c0-0.2,0.1-0.4,0.3-0.4c0,0,0,0,0,0c0.2,0,0.3,0.2,0.4,0.3l0,0.7C244.8,157.8,244.6,158,244.4,158C244.4,158,244.4,158,244.4,158
				z M152.9,155.4l0.4,0L152.9,155.4l0-0.7c0-0.2,0.2-0.4,0.3-0.4c0,0,0,0,0,0c0.2,0,0.4,0.2,0.4,0.4l0,0.7L152.9,155.4z
				 M244.3,155.2c-0.2,0-0.3-0.1-0.4-0.3l0-0.7l0.4-0.1l0.4,0l0,0.1l0,0.7C244.7,155,244.6,155.2,244.3,155.2
				C244.4,155.2,244.4,155.2,244.3,155.2z M153.2,152.9c-0.2,0-0.4-0.2-0.4-0.3l0-0.7c0-0.2,0.2-0.4,0.3-0.4c0,0,0,0,0,0
				c0.2,0,0.4,0.2,0.4,0.3l0,0.7C153.6,152.8,153.4,152.9,153.2,152.9C153.2,152.9,153.2,152.9,153.2,152.9z M244.2,152.4
				c-0.2,0-0.3-0.1-0.4-0.3l0-0.7c0-0.2,0.1-0.4,0.3-0.4c0.2,0,0.4,0.1,0.4,0.3l0,0.7C244.6,152.2,244.4,152.3,244.2,152.4
				C244.2,152.4,244.2,152.4,244.2,152.4z M153.2,150.1c-0.2,0-0.4-0.2-0.4-0.3l0-0.7c0-0.2,0.2-0.4,0.3-0.4c0.2,0,0.4,0.2,0.4,0.3
				l0,0.7C153.5,149.9,153.4,150.1,153.2,150.1C153.2,150.1,153.2,150.1,153.2,150.1z M244,149.5c-0.2,0-0.3-0.1-0.4-0.3l0-0.7
				c0-0.2,0.1-0.4,0.3-0.4c0.2,0,0.4,0.1,0.4,0.3l0,0.7C244.4,149.4,244.3,149.5,244,149.5C244,149.5,244,149.5,244,149.5z
				 M153.1,147.3c-0.2,0-0.4-0.2-0.4-0.3l0-0.7c0-0.2,0.2-0.4,0.3-0.4c0,0,0,0,0,0c0.2,0,0.4,0.2,0.4,0.3l0,0.7
				C153.5,147.1,153.3,147.3,153.1,147.3C153.1,147.3,153.1,147.3,153.1,147.3z M243.8,146.7c-0.2,0-0.3-0.1-0.4-0.3l0-0.7
				c0-0.2,0.1-0.4,0.3-0.4c0.2,0,0.4,0.1,0.4,0.3l0,0.7C244.2,146.5,244.1,146.7,243.8,146.7C243.9,146.7,243.9,146.7,243.8,146.7z
				 M153.1,144.4c-0.2,0-0.4-0.2-0.4-0.3l0-0.7c0-0.2,0.2-0.4,0.3-0.4c0.2,0,0.4,0.2,0.4,0.3l0,0.7
				C153.4,144.3,153.3,144.4,153.1,144.4C153.1,144.4,153.1,144.4,153.1,144.4z M243.7,143.9c-0.2,0-0.3-0.1-0.4-0.3l0-0.7
				c0-0.2,0.1-0.4,0.3-0.4c0.2,0,0.4,0.1,0.4,0.3l0,0.7C244,143.7,243.9,143.9,243.7,143.9C243.7,143.9,243.7,143.9,243.7,143.9z
				 M153,141.6c-0.2,0-0.4-0.2-0.4-0.3l0-0.7c0-0.2,0.2-0.4,0.3-0.4c0,0,0,0,0,0c0.2,0,0.4,0.2,0.4,0.3l0,0.7
				C153.4,141.5,153.2,141.6,153,141.6C153,141.6,153,141.6,153,141.6z M243.6,141.1c-0.2,0-0.3-0.2-0.4-0.3l0-0.7
				c0-0.2,0.1-0.4,0.3-0.4c0,0,0,0,0,0c0.2,0,0.3,0.2,0.4,0.3l0,0.7C243.9,140.9,243.8,141.1,243.6,141.1
				C243.6,141.1,243.6,141.1,243.6,141.1z M153,138.8c-0.2,0-0.4-0.2-0.4-0.3l0-0.7c0-0.2,0.2-0.4,0.3-0.4c0,0,0,0,0,0
				c0.2,0,0.4,0.2,0.4,0.3l0,0.7C153.4,138.6,153.2,138.8,153,138.8C153,138.8,153,138.8,153,138.8z M243.5,138.2L243.5,138.2
				c-0.2,0-0.4-0.1-0.4-0.3l0-0.7c0-0.2,0.2-0.4,0.4-0.4c0,0,0,0,0,0c0.2,0,0.4,0.2,0.4,0.4l0,0.7
				C243.9,138.1,243.7,138.2,243.5,138.2z M153,136c-0.2,0-0.4-0.2-0.4-0.3l0-0.7c0-0.2,0.2-0.4,0.4-0.4c0,0,0,0,0,0
				c0.2,0,0.4,0.2,0.4,0.4l0,0.7C153.3,135.8,153.2,136,153,136C153,136,153,136,153,136z M243.6,135.4
				C243.6,135.4,243.6,135.4,243.6,135.4c-0.2,0-0.4-0.2-0.4-0.4c0-0.2,0-0.5,0-0.7c0-0.2,0.2-0.4,0.4-0.3c0.2,0,0.3,0.2,0.3,0.4
				c0,0.2,0,0.5,0,0.7C243.9,135.3,243.8,135.4,243.6,135.4z M152.9,133.1C152.9,133.1,152.9,133.1,152.9,133.1
				c-0.2,0-0.4-0.2-0.4-0.4l0-0.7c0-0.2,0.2-0.4,0.4-0.4h0c0.2,0,0.4,0.2,0.4,0.4l0,0.7C153.3,133,153.1,133.1,152.9,133.1z
				 M243.8,132.6C243.8,132.6,243.7,132.6,243.8,132.6c-0.2,0-0.4-0.2-0.4-0.4c0-0.2,0.1-0.5,0.1-0.7c0-0.2,0.2-0.3,0.4-0.3
				c0.2,0,0.3,0.2,0.3,0.4c0,0.2-0.1,0.5-0.1,0.7C244.1,132.5,244,132.6,243.8,132.6z M153,130.3C153,130.3,153,130.3,153,130.3
				c-0.2,0-0.4-0.2-0.4-0.4l0-0.7c0-0.2,0.2-0.3,0.4-0.3c0.2,0,0.3,0.2,0.3,0.4l0,0.7C153.3,130.2,153.2,130.3,153,130.3z
				 M244.1,129.8C244.1,129.8,244.1,129.8,244.1,129.8c-0.2,0-0.4-0.2-0.4-0.4c0-0.2,0.1-0.5,0.1-0.7c0-0.2,0.2-0.3,0.4-0.3
				c0.2,0,0.3,0.2,0.3,0.4c0,0.2-0.1,0.5-0.1,0.7C244.5,129.7,244.3,129.8,244.1,129.8z M153.1,127.5
				C153.1,127.5,153.1,127.5,153.1,127.5c-0.2,0-0.4-0.2-0.4-0.4l0.1-0.7c0-0.2,0.2-0.3,0.4-0.3c0.2,0,0.3,0.2,0.3,0.4l-0.1,0.7
				C153.5,127.3,153.3,127.5,153.1,127.5z M244.4,127C244.4,127,244.4,127,244.4,127c-0.2,0-0.4-0.2-0.4-0.4c0-0.2,0-0.5,0-0.7
				c0-0.2,0.1-0.3,0.4-0.3c0.2,0,0.3,0.2,0.3,0.4c0,0.2,0,0.5,0,0.7C244.8,126.9,244.6,127,244.4,127z M153.4,124.7
				C153.4,124.7,153.3,124.7,153.4,124.7c-0.2,0-0.4-0.2-0.4-0.4c0-0.2,0.1-0.5,0.1-0.7c0-0.2,0.2-0.3,0.4-0.3
				c0.2,0,0.3,0.2,0.3,0.4c0,0.2-0.1,0.5-0.1,0.7C153.7,124.6,153.6,124.7,153.4,124.7z M244.5,124.2c-0.2,0-0.3-0.1-0.4-0.3
				c0-0.2,0-0.5,0-0.7c0-0.2,0.1-0.4,0.3-0.4c0.2,0,0.4,0.1,0.4,0.3c0,0.2,0,0.5,0,0.7C244.8,124,244.7,124.2,244.5,124.2
				C244.5,124.2,244.5,124.2,244.5,124.2z M154.3,122c-0.1,0-0.1,0-0.2-0.1c-0.2-0.1-0.2-0.3-0.1-0.5c0.1-0.2,0.3-0.4,0.4-0.6
				c0.1-0.1,0.4-0.2,0.5,0c0.1,0.1,0.2,0.4,0,0.5c-0.1,0.2-0.3,0.3-0.4,0.5C154.5,122,154.4,122,154.3,122z M244.1,121.4
				c-0.2,0-0.3-0.1-0.3-0.3c-0.1-0.2-0.1-0.4-0.2-0.7c-0.1-0.2,0-0.4,0.2-0.4c0.2-0.1,0.4,0,0.4,0.2c0.1,0.2,0.1,0.5,0.2,0.7
				C244.5,121.1,244.3,121.3,244.1,121.4C244.1,121.4,244.1,121.4,244.1,121.4z M156.3,120.2c-0.1,0-0.3-0.1-0.3-0.2
				c-0.1-0.2,0-0.4,0.2-0.5c0.2-0.1,0.4-0.2,0.7-0.3c0.2-0.1,0.4,0,0.5,0.2c0.1,0.2,0,0.4-0.2,0.5c-0.2,0.1-0.4,0.2-0.6,0.3
				C156.4,120.2,156.4,120.2,156.3,120.2z M159,119.3c-0.2,0-0.3-0.1-0.3-0.3c0-0.2,0.1-0.4,0.3-0.4c0.2-0.1,0.5-0.1,0.7-0.1
				c0.2,0,0.4,0.1,0.4,0.3c0,0.2-0.1,0.4-0.3,0.4C159.6,119.2,159.3,119.3,159,119.3C159.1,119.3,159.1,119.3,159,119.3z
				 M161.8,118.8c-0.2,0-0.3-0.1-0.4-0.3c0-0.2,0.1-0.4,0.3-0.4c0.2,0,0.5-0.1,0.7-0.1c0.2,0,0.4,0.1,0.4,0.3c0,0.2-0.1,0.4-0.3,0.4
				C162.3,118.8,162.1,118.8,161.8,118.8C161.8,118.8,161.8,118.8,161.8,118.8z M243,118.8c-0.1,0-0.2-0.1-0.3-0.2
				c-0.1-0.2-0.2-0.4-0.4-0.6c-0.1-0.2-0.1-0.4,0.1-0.5c0.2-0.1,0.4-0.1,0.5,0.1c0.2,0.2,0.3,0.4,0.4,0.6c0.1,0.2,0.1,0.4-0.1,0.5
				C243.1,118.8,243,118.8,243,118.8z M164.6,118.5c-0.2,0-0.3-0.1-0.4-0.3c0-0.2,0.1-0.4,0.3-0.4l0.7-0.1c0.2,0,0.4,0.1,0.4,0.3
				c0,0.2-0.1,0.4-0.3,0.4L164.6,118.5C164.6,118.5,164.6,118.5,164.6,118.5z M167.4,118.2c-0.2,0-0.3-0.1-0.4-0.3
				c0-0.2,0.1-0.4,0.3-0.4l0.7-0.1c0.2,0,0.4,0.1,0.4,0.3c0,0.2-0.1,0.4-0.3,0.4L167.4,118.2C167.5,118.2,167.4,118.2,167.4,118.2z
				 M170.2,117.9c-0.2,0-0.3-0.1-0.4-0.3c0-0.2,0.1-0.4,0.3-0.4l0.7-0.1c0.2,0,0.4,0.1,0.4,0.3c0,0.2-0.1,0.4-0.3,0.4L170.2,117.9
				C170.3,117.9,170.2,117.9,170.2,117.9z M173,117.6c-0.2,0-0.3-0.1-0.4-0.3c0-0.2,0.1-0.4,0.3-0.4l0.7-0.1c0.2,0,0.4,0.1,0.4,0.3
				c0,0.2-0.1,0.4-0.3,0.4L173,117.6C173.1,117.6,173.1,117.6,173,117.6z M175.9,117.3c-0.2,0-0.3-0.1-0.4-0.3
				c0-0.2,0.1-0.4,0.3-0.4l0.6-0.1c0.2,0,0.4,0.1,0.4,0.3c0,0.2-0.1,0.4-0.3,0.4L175.9,117.3C175.9,117.3,175.9,117.3,175.9,117.3z
				 M178.7,117c-0.2,0-0.3-0.1-0.4-0.3c0-0.2,0.1-0.4,0.3-0.4l0.7-0.1c0.2,0,0.4,0.1,0.4,0.3c0,0.2-0.1,0.4-0.3,0.4L178.7,117
				C178.7,117,178.7,117,178.7,117z M241,116.7c-0.1,0-0.1,0-0.2-0.1c-0.2-0.1-0.4-0.3-0.6-0.4c-0.2-0.1-0.2-0.3-0.1-0.5
				c0.1-0.2,0.3-0.2,0.5-0.1c0.2,0.1,0.4,0.3,0.6,0.4c0.2,0.1,0.2,0.3,0.1,0.5C241.3,116.7,241.2,116.7,241,116.7z M181.5,116.7
				c-0.2,0-0.3-0.1-0.4-0.3c0-0.2,0.1-0.4,0.3-0.4l0.7-0.1c0.2,0,0.4,0.1,0.4,0.3c0,0.2-0.1,0.4-0.3,0.4L181.5,116.7
				C181.5,116.7,181.5,116.7,181.5,116.7z M184.3,116.5c-0.2,0-0.3-0.1-0.4-0.3c0-0.2,0.1-0.4,0.3-0.4l0.7-0.1
				c0.2,0,0.4,0.1,0.4,0.3c0,0.2-0.1,0.4-0.3,0.4L184.3,116.5C184.3,116.5,184.3,116.5,184.3,116.5z M187.1,116.2
				c-0.2,0-0.3-0.1-0.4-0.3c0-0.2,0.1-0.4,0.3-0.4l0.7-0.1c0.2,0,0.4,0.1,0.4,0.3c0,0.2-0.1,0.4-0.3,0.4L187.1,116.2
				C187.1,116.2,187.1,116.2,187.1,116.2z M189.9,116c-0.2,0-0.3-0.1-0.4-0.3c0-0.2,0.1-0.4,0.3-0.4l0.7-0.1c0.2,0,0.4,0.1,0.4,0.3
				c0,0.2-0.1,0.4-0.3,0.4L189.9,116C190,116,189.9,116,189.9,116z M192.8,115.8c-0.2,0-0.3-0.1-0.4-0.3c0-0.2,0.1-0.4,0.3-0.4
				l0.7,0c0.2,0,0.4,0.1,0.4,0.3c0,0.2-0.1,0.4-0.3,0.4L192.8,115.8C192.8,115.8,192.8,115.8,192.8,115.8z M195.6,115.6
				c-0.2,0-0.3-0.1-0.4-0.3c0-0.2,0.1-0.4,0.3-0.4l0.7,0c0.2,0,0.4,0.1,0.4,0.3c0,0.2-0.1,0.4-0.3,0.4L195.6,115.6
				C195.6,115.6,195.6,115.6,195.6,115.6z M198.4,115.5c-0.2,0-0.3-0.1-0.4-0.3c0-0.2,0.1-0.4,0.3-0.4l0.7,0c0.2,0,0.4,0.1,0.4,0.3
				c0,0.2-0.1,0.4-0.3,0.4L198.4,115.5C198.4,115.5,198.4,115.5,198.4,115.5z M238.6,115.4c0,0-0.1,0-0.1,0
				c-0.2-0.1-0.4-0.2-0.7-0.2c-0.2-0.1-0.3-0.3-0.2-0.4c0.1-0.2,0.3-0.3,0.4-0.2c0.2,0.1,0.5,0.1,0.7,0.2c0.2,0.1,0.3,0.3,0.2,0.5
				C238.8,115.3,238.7,115.4,238.6,115.4z M201.3,115.3l0-0.4l0-0.4l0.7,0c0.2,0,0.4,0.1,0.4,0.3c0,0.2-0.1,0.4-0.3,0.4L201.3,115.3
				z M204.1,115.2l0-0.4l0-0.4l0.7,0c0.2,0,0.4,0.1,0.4,0.3c0,0.2-0.1,0.4-0.3,0.4L204.1,115.2z M206.9,115.1l0-0.4l0-0.4l0.7,0
				c0.2,0,0.4,0.1,0.4,0.3c0,0.2-0.1,0.4-0.3,0.4L206.9,115.1z M209.7,115l0-0.4l0-0.4l0.7,0c0.2,0,0.4,0.2,0.4,0.3
				c0,0.2-0.2,0.4-0.3,0.4L209.7,115z M212.5,115c-0.2,0-0.3-0.2-0.4-0.3c0-0.2,0.2-0.4,0.3-0.4l0.7,0c0,0,0,0,0,0
				c0.2,0,0.4,0.2,0.4,0.3c0,0.2-0.2,0.4-0.3,0.4L212.5,115C212.5,115,212.5,115,212.5,115z M215.4,114.9l0-0.7l0.7,0c0,0,0,0,0,0
				c0.2,0,0.4,0.2,0.4,0.4c0,0.2-0.2,0.4-0.3,0.4L215.4,114.9z M218.2,114.9c-0.2,0-0.4-0.2-0.4-0.3c0-0.2,0.2-0.4,0.3-0.4l0.7,0
				c0,0,0,0,0,0c0.2,0,0.4,0.2,0.4,0.3c0,0.2-0.2,0.4-0.3,0.4L218.2,114.9C218.2,114.9,218.2,114.9,218.2,114.9z M221,114.8
				c-0.2,0-0.4-0.2-0.4-0.4c0-0.2,0.2-0.4,0.4-0.4l0.7,0c0,0,0,0,0,0c0.2,0,0.4,0.2,0.4,0.4c0,0.2-0.2,0.4-0.4,0.4L221,114.8
				C221,114.8,221,114.8,221,114.8z M223.8,114.8c-0.2,0-0.4-0.2-0.4-0.4c0-0.2,0.2-0.4,0.4-0.4l0.7,0c0,0,0,0,0,0
				c0.2,0,0.4,0.2,0.4,0.4c0,0.2-0.2,0.4-0.4,0.4L223.8,114.8C223.8,114.8,223.8,114.8,223.8,114.8z M226.7,114.8
				c-0.2,0-0.3-0.1-0.4-0.3c0-0.2,0.1-0.4,0.3-0.4l0.7,0c0.2,0,0.4,0.1,0.4,0.3c0,0.2-0.1,0.4-0.3,0.4L226.7,114.8
				C226.7,114.8,226.7,114.8,226.7,114.8z M235.8,114.7C235.8,114.7,235.8,114.7,235.8,114.7c-0.3,0-0.5-0.1-0.7-0.1
				c-0.2,0-0.3-0.2-0.3-0.4c0-0.2,0.2-0.3,0.4-0.3c0.2,0,0.5,0.1,0.7,0.1c0.2,0,0.3,0.2,0.3,0.4C236.1,114.6,236,114.7,235.8,114.7z
				 M229.5,114.6c-0.2,0-0.3-0.1-0.4-0.3c0-0.2,0.1-0.4,0.3-0.4l0.7,0c0.2,0,0.4,0.1,0.4,0.3c0,0.2-0.1,0.4-0.3,0.4L229.5,114.6
				C229.5,114.6,229.5,114.6,229.5,114.6z M215.4,114.6L215.4,114.6L215.4,114.6z M233,114.5C233,114.5,233,114.5,233,114.5
				c-0.2,0-0.5,0-0.7,0c-0.2,0-0.4-0.2-0.4-0.4c0-0.2,0.2-0.4,0.4-0.4c0,0,0,0,0,0c0.2,0,0.5,0,0.7,0c0.2,0,0.3,0.2,0.3,0.4
				C233.4,114.4,233.2,114.5,233,114.5z"/>
			<path class="st1" d="M242.5,176.2c-0.2-7.3,0-14.6-0.3-21.9c-0.3-6.9-1.1-13.8-0.7-20.7c0.3-4.1,2.3-11.6-1.1-14.9
				c-3.5-3.6-11.1-2.1-15.5-2.1c-14.7,0.1-29.4,0.5-44,2c-3.9,0.4-7.8,0.8-11.6,1.2c-3.6,0.4-7.7,0.6-11.2,1.6
				c-1.9,0.5-2.4,1.5-2.7,3.4c-0.5,4.2-0.4,8.5-0.3,12.7c0.1,8.5,0.3,16.9,0.3,25.4c0,4.4-0.1,9,0.7,13.3c-0.1,4.7-0.3,9.5,0.1,14.1
				c0.3,4.2,2.6,6.8,6.9,7.1c7.2,0.5,14.5,0,21.6,0.4c14.8,0.7,29.7,1.3,44.5,1.8c2.8,0.1,7.1,1,9.7-0.2c1.6-0.8,2.6-2.7,3.2-4.3
				C244.3,189.4,242.7,182.1,242.5,176.2z"/>
		</g>
		<path class="st1" d="M259.4,154.2c-0.1-0.7-1.2-0.5-1.2,0.2c0,1.4-0.1,2.8-0.2,4.2c0,0.8,0.2,1.6-0.8,2.1c-0.8,0.4-1.6,0.1-2-0.6
			c0-0.6-0.1-1.2-0.2-1.8c-0.1-0.5-0.9-0.7-1-0.1c-0.2,0.9-0.4,1.8,0.1,2.6c0,0,0,0.1,0,0.1c-0.9-0.1-1.8-0.2-2.8-0.2c0,0,0,0,0,0
			c0-0.1,0-0.3,0-0.4c0-1.8-0.1-3.6-0.1-5.4c0-0.2-0.1-0.3-0.3-0.4c0,0,0,0,0,0c0-0.4-0.6-0.5-0.7-0.1c-0.5,1.4-0.6,2.9-0.5,4.4
			c-0.1,0.8-0.2,1.6,0.1,2.3c0.1,0.2,0.2,0.3,0.3,0.5c0,0.1,0,0.1,0,0.2c0,0.3,0.4,0.4,0.6,0.4c0.7,0.4,1.5,0.4,2.3,0.4
			c0.1,0.1,0.2,0.1,0.3,0.1c0.2,0,0.5,0,0.8,0c0,0.2,0,0.5,0,0.7c0,0.2,0,0.5,0.1,0.7c0,0.1,0,0.1,0,0.2c0.1,0.5,0.9,0.5,1,0
			c0,0,0,0,0,0c0.1-0.1,0.2-0.3,0.2-0.4c0,0,0-0.1,0-0.1c0-0.1,0-0.1,0-0.2c0.1-0.3,0.1-0.5,0.2-0.8c1.6,0,3.3-0.2,4-1.3
			C260.9,159.6,259.7,156.3,259.4,154.2z"/>
		<g>
			<path class="st2" d="M268.5,110.8c-1.8-0.2-3.6,0.2-5.4,0.1c-1-0.1-2-0.2-3.1-0.2c0-0.4-0.1-0.7-0.4-1c-0.5-0.4-1.4-0.3-1.9-0.4
				c-1.2-0.1-2.4-0.1-3.5-0.1c-0.9,0-1.9-0.1-2.2,0.8c-2.6-0.2-5.2-0.3-7.9-0.4c-6-0.3-12-0.4-18-0.4c0.1-0.1,0.2-0.2,0.2-0.4
				c0-0.6-0.2-0.9-0.6-1.2c-0.1-0.2-0.3-0.3-0.5-0.3c-0.1,0-0.2,0-0.3,0c-0.5-0.1-1-0.2-1.5-0.2c0.8-3.7-0.2-9.1-3.9-10.9
				c-2.4-1.2-5.8-0.6-8.4-0.6c-1.9,0-3.8,0-5.7,0c-1.2,0-2.4,0-3.6,0c-0.7,0-1.3,0-2,0c-5.9,0-13.4-1.1-19.1,1.1
				c-3.5,1.4-4.7,6.2-4.1,9.8c-0.7-0.1-1.4-0.1-2,0.1c-1.4,0.5-1.4,2.1-0.8,3.3c-4.8,0.1-9.7,0.2-14.5,0.2c-3.9,0-7.8,0-11.7-0.1
				c0-0.1-0.1-0.3-0.2-0.4c-0.4-0.6-1.3-0.6-2-0.6c-1.8-0.1-3.7,0-5.5,0.6c-0.2,0-0.2,0.2-0.3,0.3c0,0,0,0,0,0.1
				c-2.9,0.1-5.8,0.2-8.6,0.5c-5.2,0.6-7,4.2-6.9,8.5c-1,8.7-0.5,17.3-0.3,26c0.1,4.5,0.2,9,0.3,13.6c0,10.7,0.6,21.5,1.3,32.1
				c0.3,4.4,0.7,9.1,3.8,12.5c2.9,3.2,7.2,4.3,11.3,4.8c6.3,0.8,12.8,0.6,19.1,0.6c7,0,14,0.3,20.9,0.5c13.6,0.5,27.2,1.4,40.8,1.3
				c6,0.1,12,0.2,18,0.3c7.4,0.1,15.6,1,22.9-0.3c2.4-0.4,4.8-1.3,6.4-3.3c2.1-2.5,2.1-6.1,2.6-9.2c1.3-7.7,1.3-15.4,1.4-23.2
				c0.1-8.6,0.5-17.1,0.8-25.6c0.3-8.8,0.5-17.6,0.7-26.3C274.3,118,274.5,111.5,268.5,110.8z M253.5,110.4c1.2,0,2.4,0,3.5,0.1
				c0.6,0,1.5,0,1.9,0.6c0,0.1,0.1,0.2,0.1,0.3c-1,16.3-1,32.7-1.5,49.1c-0.4,0.4-1.3,0.1-1.9,0.2c0-0.8,0-1.6-0.2-2.4
				c-0.1-0.4-0.1-1-0.6-1c-0.3,0-0.5,0.1-0.5,0.4c0,0,0,0,0,0c-0.1-0.1-0.3-0.1-0.4,0.1c-0.4,0.8-0.6,1.8-0.7,2.9
				c-0.1,0-0.2,0-0.2,0c-0.4,0-0.9,0-1.3,0c0,0,0,0,0,0c0-0.2,0-0.4,0-0.6c0.3-16.3,1.3-32.8,0.9-49.1
				C252.6,110.5,252.8,110.4,253.5,110.4z M256.8,177.8c-0.2,0.6-0.2,1.2-0.4,1.8c-0.3,1-1.7,1.7-2.7,1.5c-1.7-0.4-1.9-2.9-2.3-4.5
				c0-4.4,0.1-8.8,0.2-13.2c0.6,0.1,1.2,0,1.7-0.2c0,0.3,0.1,0.6,0.1,0.9c0.2,1,0.7,2.3,1.7,1c0.4-0.6,0.5-1.5,0.5-2.2
				c0.6,0.2,1.2,0.3,1.8,0.2C257.2,168,257,172.9,256.8,177.8z M251,160.5c0,0.1,0,0.1,0,0.2c0,0.2,0.1,0.3,0.2,0.3
				c0.4,0,0.7,0.1,1.1,0.1c0.3,0,0.6,0,0.8,0.1c0,0.4,0,0.8,0,1.3c-1.4-0.1-3-0.2-3.5-1.8c-0.3-0.9-0.1-2-0.1-2.9
				c0-0.6,0-1.3,0.2-1.9c0.1-0.4,0.2-0.7,0.4-1.1l0.8-0.7c0,1.9,0,3.8-0.1,5.7c0,0.2,0,0.4,0,0.6C250.9,160.5,251,160.5,251,160.5z
				 M254.2,158.1c0.1,0.1,0.3,0.1,0.3-0.1c0,0,0,0,0-0.1c0,0,0.1,0,0.1-0.1c0.2-0.2,0.4,1.3,0.4,1.5c0,0.6,0.1,1.2,0.1,1.8
				c0,0.6,0.4,3.6-0.9,3.2c-0.5-0.2-0.2-2.8-0.1-3.3C254,160.5,254.5,158.5,254.2,158.1z M257.2,162.3c-0.6,0.1-1.1,0.1-1.7,0.3
				c0-0.1,0-0.2,0-0.3c0-0.3,0-0.7,0-1.1c0.9,0.1,2.2,0.3,2.6-0.6c0,0,0,0,0,0c0,0,0-0.1,0-0.1c0-0.1,0.1-0.2,0.1-0.3
				c0-0.1,0-0.2-0.1-0.2c0.1-1.9,0.2-3.8,0.2-5.8c1.4,1.5,1.4,3.6,1,5.6C259.2,161.1,258.6,162.1,257.2,162.3z M199.7,96.7
				c3.8,0,7.6,0.1,11.5,0.1c0.4,0,0.8,0.1,1.2,0.1c2.5,0.2,5.3,0.2,7.3,1.6c0.4,0.3,0.7,0.7,1,1.2c1,1.8,1.5,3.8,1.7,5.8
				c0,0.5,0,1.1,0,1.6c-1.8,0-3.7,0.2-5.3,0.2c-0.2,0-0.5,0-0.9-0.1c0.3-2.4,0.5-5.6-1.8-6.5c-1.8-0.7-4.9-0.2-6.9-0.2
				c-0.2,0-0.4,0-0.7,0c-3.2-0.3-6.5-0.6-9.6-0.5c-3,0.1-7.6,0.2-10.5,1.9c-1.5,0.7-2.3,1.7-2.6,3c-0.1-0.1-0.2-0.2-0.3-0.3
				c-0.3-0.3-0.6-0.6-0.8-0.9c0-0.1-0.1,0-0.1,0.1c0.2,0.3,0.4,0.6,0.7,0.9c0.1,0.2,0.3,0.4,0.5,0.5c-0.1,0.3-0.1,0.5-0.1,0.8
				c0,0,0,0,0,0c-0.5-0.5-1-1-1.5-1.5c-0.1-0.1-0.2,0-0.1,0.1c0.4,0.4,0.8,0.7,1.1,1.1c0.2,0.2,0.4,0.4,0.5,0.7c0,0,0,0,0,0
				c0,0.3,0,0.7,0,1c0,0,0,0,0,0c-0.7-0.7-1.3-1.4-2.1-2c-0.1-0.1-0.2,0.1-0.1,0.1c0.6,0.6,1.2,1.2,1.8,1.9c-0.3,0-0.5,0-0.8,0
				c-0.1-0.1-0.2-0.2-0.3-0.3c-0.3-0.3-0.7-0.6-1.1-0.8c-0.1,0-0.2,0.1-0.1,0.1c0.3,0.3,0.6,0.6,1,0.9c0,0,0,0,0,0
				c-0.5,0-1.1-0.1-1.6-0.1c-0.7,0-1.5-0.2-2.4-0.4c0-1.6,0.2-3.2,0.7-4.7c1-3,3.6-4.2,6.5-4.8c1.7-0.3,3.5-0.5,5.3-0.7
				C193.6,96.6,196.7,96.7,199.7,96.7z M175.2,108.9c2.2,0.2,4.3-0.5,6.6-0.6c1.2,0,2.5,0,3.7,0.1c1.3,0.2,1.5,0.1,1.7,1.2
				c-4,0.1-8,0.2-12,0.2C175.2,109.5,175.2,109.4,175.2,108.9z M188,107c-0.8,0.2-1.7,0.3-2.6,0.3c0.3-1.5,0.4-3.1,1.9-4
				c0.9-0.6,2.6-0.8,3.6-1c2.8-0.5,5.5-0.6,8.3-0.8c2.4-0.1,4.8-0.2,7.3-0.1c1.8,0.1,5.4-0.1,7.5,0.9c0.4,0.4,0.8,0.9,1.1,1.7
				c0.3,0.8,0.2,1.9,0.1,3c-2.3-0.2-5.4-0.2-3.6,2.2c0,0,0,0,0,0.1c-7.5,0.1-15,0.2-22.5,0.3c0,0,0,0,0-0.1c0-0.5,0-1,0.1-1.4
				C189.3,107.4,188.7,106.8,188,107z M212.3,109c1.4-0.8,3.7-0.6,5.3-0.6c0.7,0,4.8,0,6.4,0.1c0.3,0.2,0.5,0.4,0.5,0.8
				c-2.3,0-4.6,0-7,0c-1.8,0-3.7,0-5.5,0C212.1,109.2,212.2,109.1,212.3,109z M141.2,206.2c0-7.9-0.1-15.8-0.1-23.7
				c0.4,1,1.3,1.7,2.6,1.6c1.2-0.1,2.1-0.8,2.7-1.7c-0.2,8.1-0.3,16.2-0.4,24.3C144.3,206.5,142.8,206.4,141.2,206.2z M140.3,158.6
				c0,0.4,0,0.9,0,1.3c0,0,0.1,0,0.1,0c0,0.1,0.1,0.2,0.3,0.3c0.5,0.1,1,0.3,1.5,0.3c0.1,0,0.3,0,0.4-0.1c0,0.3,0,0.5,0,0.6
				c0,0.3,0,1,0,1.7c-0.6-0.1-1.2-0.1-1.9-0.3c-1.5-0.4-2-1.6-2-3c-0.1-1.6-0.5-4.6,1.5-5.3C140.3,155.6,140.3,157.1,140.3,158.6z
				 M146.3,180.1c-0.4,1.1-0.9,2.2-1.9,2.8c-2.1,1.2-3.1-0.8-3.4-2.7c0-5.7-0.1-11.3-0.1-17c0.5,0.1,1.1,0,1.7-0.2
				c0.1,0.9,0.4,1.8,1.2,1.6c0.5-0.1,0.8-0.8,0.9-1.6c0.6,0.2,1.3,0.2,1.9,0C146.6,168.8,146.4,174.5,146.3,180.1z M143.5,156.1
				c0.1,0.1,0.2,0.1,0.3,0.1c0.3-0.1,0.4,3.3,0.4,3.6c0,0.7,0,1.3-0.1,2c-0.1,0.6,0.3,2.6-0.6,1.5c-0.6-0.8-0.5-2.2-0.5-3.2
				C143.1,159.5,143,156.8,143.5,156.1z M144.8,162.7c0.1-0.8,0-1.6,0-2.2c0.7,0.3,2.1,0.1,2.4-0.5c0.1,0,0.1,0,0.2,0
				c0-0.4,0-0.9,0-1.3c0-1.4,0-2.8,0-4.2c1.2,0.9,1.1,3.4,1,4.7C148.4,161.5,146.9,162.4,144.8,162.7z M141.5,110.2
				c1.2-0.4,3.6-0.4,4.4,0.5c1,1,0.8,3.1,0.8,4.4c0,0.2,0,0.4,0,0.6c-0.3,14.3,0.1,28.6,0,42.8c0,0.3,0,0.6,0,0.9
				c-0.2,0.1-0.4,0.3-0.7,0.4c-0.4,0.1-0.9,0-1.2,0.2c0-0.1,0-0.1,0-0.2c0-0.8,0.5-4.5-1.1-4.2c0,0-0.1,0-0.1,0c0,0,0,0,0,0
				c-0.9,0.2-1,2.7-1,4.2c-0.2-0.1-0.4-0.1-0.6-0.2c-0.4-0.1-0.7-0.2-1.1-0.3c0,0,0,0,0,0c0-0.3,0-0.5,0-0.8
				c-0.2-15.6,0.3-31.5-0.8-47.1c0.1-0.2,0.2-0.4,0.3-0.6C140.5,110.3,140.8,110.1,141.5,110.2z M124.6,145.1
				c0.1-7.5,0.8-14.9,0.8-22.4c0,0,0.1-0.1,0.1-0.2c0.3-2.2,0.7-5.5,2.1-7.3c2.2-2.8,8.4-2.2,12-2.2c-0.3,13.5,0.4,27,0.7,40.5
				c-2.5,0.2-2.1,4.5-2.1,6.2c0,1.7,0.9,3,2.3,3.4c0.1,14.3,0.2,28.6,0.1,42.9c-1.7-0.2-3.3-0.6-4.9-1.1c0-0.3,0.1-0.5,0.3-0.7
				c0-0.1,0-0.1-0.1-0.1c-0.3,0.2-0.4,0.4-0.4,0.7c-0.2-0.1-0.4-0.1-0.6-0.2c0.2-0.3,0.3-0.7,0.4-1c0-0.1-0.1-0.2-0.2-0.1
				c-0.2,0.3-0.4,0.7-0.5,1c-1.9-0.7-3.6-1.7-4.9-3c-0.2-0.3-0.4-0.5-0.6-0.8c0.3,0.3,0.6,0.6,0.9,0.8c2.3,1.5,5.7,1.2,8.3,1.7
				c0.2,0,0.2-0.2,0.1-0.2c-2-0.5-4.2-0.2-6.2-0.7c-1.5-0.4-2.7-1.2-3.6-2.3c-2.2-3.9-2.2-9.1-2.5-13.4c-0.8-9.5-1.1-19-1.5-28.5
				C124.5,153.8,124.5,149.4,124.6,145.1z M212.7,209.5c0.1-0.3,0.1-0.6,0.1-0.8c0.1-0.4,0.1-0.9,0.2-1.3c0-0.1-0.1-0.1-0.1,0
				c-0.1,0.4-0.2,0.9-0.3,1.3c-0.1,0.3-0.2,0.6-0.2,0.9c-0.3,0-0.7,0-1,0c0.1-0.4,0.1-0.8,0.2-1.3c0.1-0.6,0.3-1.3,0.4-1.9
				c0-0.1-0.1-0.1-0.1,0c-0.2,0.7-0.4,1.4-0.5,2.1c-0.1,0.4-0.2,0.8-0.2,1.2c-10.5-0.2-20.9-0.6-31.4-1.1c0.4-0.8,0.8-1.6,1.1-2.5
				c0-0.1-0.1-0.1-0.1,0c-0.5,0.8-0.8,1.7-1.2,2.5c-0.3,0-0.7,0-1,0c0.4-1.1,0.9-2.1,1.4-3.1c0-0.1-0.1-0.2-0.1-0.1
				c-0.7,0.9-1.1,2.1-1.4,3.2c-9.7-0.4-19.3-1-29-1.5c-0.9-0.1-1.9-0.1-2.9-0.2c0.6-14.6,0.7-29.3,0.8-43.9c0.8-0.4,1.4-1.2,1.5-2.1
				c0.3-1.4,0-3-0.2-4.4c-0.1-1-0.2-1.9-1-2.6c-0.1-0.1-0.2-0.1-0.3-0.1c0.2-13.4,0.5-27-0.2-40.4c0-0.2,0-0.3,0.1-0.5
				c5.3-0.2,10.6-0.5,15.9-0.7c15.1-0.7,30.1-1.3,45.2-1.7c14.4-0.4,28.8-0.3,43.1,0.7c0,0.8,0.1,1.8,0.2,2.6c0,0.1,0,0.3,0,0.4
				c-0.9,13-0.8,26.2-0.9,39.3c-2.1,0.3-1.9,5.5-2,6.8c-0.1,1,0,2.1,0.9,2.7c0.3,0.2,0.6,0.3,0.9,0.4c-0.3,15.4-0.5,30.8-0.5,46.2
				c-2.1,0.1-4.2,0.1-6.4,0.2c0-0.5-0.1-1.1-0.2-1.6c0-0.1-0.2-0.1-0.2,0.1c0.1,0.5,0.1,1,0.1,1.5c-0.3,0-0.7,0-1,0
				c0-0.6,0-1.3,0-1.9c0-0.1-0.2-0.1-0.2,0c0,0.6-0.1,1.3,0,1.9c-0.3,0-0.6,0-0.9,0C231.9,209.7,222.3,209.6,212.7,209.5z
				 M251,209.3c0.1-10,0.2-20,0.3-30c0.2,1.4,0.8,2.7,2.6,2.8c1,0.1,2.1-0.6,2.7-1.4c0-0.1,0.1-0.1,0.1-0.2
				c-0.4,9.6-0.8,19.1-1.3,28.6c-0.7,0-1.3,0-2,0.1C252.6,209.3,251.8,209.3,251,209.3z M271.8,188c-0.3,4.8-0.5,11.2-3.2,15.6
				c-1.3,1.2-3.3,1.5-5,1.8c-2,0.3-4,0.5-6,0.5c-0.1,0-0.1,0.1,0,0.1c2.6,0.1,5.2,0,7.8-0.6c0.9-0.2,1.8-0.4,2.5-0.8
				c-0.8,1.1-1.9,2.1-3.2,2.8c-0.3-0.2-0.6-0.3-1-0.4c-0.1,0-0.1,0.1,0,0.1c0.3,0.1,0.5,0.2,0.8,0.4c-0.3,0.1-0.5,0.3-0.8,0.4
				c-0.1-0.1-0.2-0.1-0.4-0.2c-0.4-0.2-0.8-0.4-1.1-0.7c-0.1,0-0.1,0.1-0.1,0.1c0.4,0.3,0.8,0.6,1.3,0.8c-0.3,0.1-0.5,0.2-0.8,0.3
				c-0.3,0.1-0.6,0.2-0.9,0.2c-0.1-0.2-0.2-0.4-0.3-0.6c-0.2-0.4-0.4-0.8-0.6-1.2c0-0.1-0.2,0-0.2,0.1c0.1,0.4,0.3,0.8,0.5,1.2
				c0.1,0.2,0.1,0.4,0.2,0.5c-0.3,0.1-0.6,0.1-0.8,0.2c-0.3-0.6-0.6-1.2-0.9-1.7c0-0.1-0.2,0-0.1,0.1c0.2,0.6,0.4,1.1,0.7,1.7
				c-1.4,0.2-2.9,0.3-4.3,0.3c0.8-15.4,1.5-30.8,2.1-46.2c1-0.3,1.8-1.1,1.9-2.4c0.2-1.7,0.1-3.6-0.1-5.3c-0.2-1-0.4-1.5-1.4-1.9
				c0,0,0,0,0,0c0.6-13.6,1.3-27.3,1.2-41c0.1-0.3,0.2-0.5,0.2-0.8c1.9,0.2,3.8,0.4,5.6,0.9c2.2,0.6,4.8,1.1,5.7,3.4
				c0.6,1.5,0.5,3.2,0.5,4.8c0.1,7.6,0.2,15.2,0.3,22.9C272.2,158.3,272.6,173.2,271.8,188z"/>
			<path class="st2" d="M218.2,106.8c0.1,0,0.2-0.2,0.1-0.2c-0.4-0.2-0.7-0.3-1.1-0.5c-0.1-0.1-0.2,0.1-0.1,0.1
				C217.4,106.4,217.8,106.7,218.2,106.8z"/>
			<path class="st2" d="M218.2,105.7c0.1,0,0.2-0.2,0.1-0.2c-0.2-0.1-0.5-0.2-0.7-0.2c-0.1,0-0.2,0.1-0.1,0.2
				C217.7,105.5,217.9,105.6,218.2,105.7z"/>
			<path class="st2" d="M217.6,104.4c0.1,0,0.2,0,0.3,0c0.1,0,0.1-0.2,0-0.2c-0.1,0-0.2,0-0.3,0
				C217.4,104.1,217.4,104.4,217.6,104.4z"/>
			<path class="st2" d="M182.8,101.8c-0.1,0-0.1,0.2,0,0.2c0.3,0,0.5,0,0.8,0c0.2,0,0.4,0.1,0.5,0c0.1,0,0.1-0.2,0.1-0.2
				C183.9,101.6,183.2,101.7,182.8,101.8z"/>
			<path class="st2" d="M183.3,100.8c0.3,0.1,0.5,0.2,0.8,0.3c0.1,0,0.1-0.1,0.1-0.2c-0.2-0.2-0.5-0.2-0.8-0.3
				C183.2,100.5,183.2,100.7,183.3,100.8z"/>
			<path class="st2" d="M197.4,99.6c0.1,0.2,0.3,0.1,0.3-0.1c0-0.3-0.2-0.6-0.5-0.8c-0.2-0.1-0.3,0.1-0.2,0.3
				C197.2,99.2,197.2,99.4,197.4,99.6z"/>
			<path class="st2" d="M198.8,99.1c0.1,0.1,0.2-0.1,0.2-0.2c-0.1-0.2-0.2-0.3-0.4-0.5c-0.1-0.1-0.4,0-0.3,0.2
				C198.5,98.8,198.6,99,198.8,99.1z"/>
			<path class="st2" d="M211.4,99c0-0.1,0-0.1,0-0.2c0-0.2-0.2-0.2-0.2,0c0,0.1,0,0.1,0,0.2C211.2,99.1,211.4,99.1,211.4,99z"/>
			<path class="st2" d="M249.2,205.8c-33.6-0.8-67.2-2.1-100.8-2.3c0,0,0,0,0,0c33.6,1.3,67.2,1.8,100.8,2.7
				C249.5,206.3,249.5,205.8,249.2,205.8z"/>
			<path class="st2" d="M245.8,207.6c-0.1-0.1-0.3,0-0.2,0.1c0.2,0.3,0.4,0.6,0.8,0.7c0.1,0,0.2-0.1,0.1-0.2
				C246.3,208,246,207.9,245.8,207.6z"/>
			<path class="st2" d="M214.6,205.5c0.2,0.8,0.4,1.7,0.8,2.5c0,0.1,0.2,0,0.2,0c-0.1-0.8-0.5-1.7-0.8-2.5
				C214.7,205.4,214.5,205.5,214.6,205.5z"/>
			<path class="st2" d="M215.7,205.5c0.1,0.5,0.1,1.1,0.3,1.5c0,0.1,0.2,0.1,0.2,0c-0.1-0.5-0.2-1-0.4-1.6
				C215.8,205.4,215.7,205.4,215.7,205.5z"/>
			<path class="st2" d="M167.9,205.4c0-0.1-0.2-0.1-0.2,0c0,0.4,0.1,0.7,0.2,1.1c0.1,0.3,0.1,0.6,0.3,0.9c0,0,0.1,0,0.1-0.1
				c0-0.3-0.1-0.6-0.2-0.8C168,206.1,167.9,205.7,167.9,205.4z"/>
			<path class="st2" d="M169.2,205.7c0,0.4-0.1,0.9,0,1.3c0,0.1,0.2,0.1,0.2,0c0.1-0.4,0-0.9,0-1.3
				C169.5,205.6,169.2,205.6,169.2,205.7z"/>
			<path class="st2" d="M200.7,206.4c-0.1,0-0.1,0.1-0.1,0.1c0.3,0.3,0.5,0.5,0.8,0.8c0.1,0.1,0.2-0.1,0.1-0.2
				C201.3,206.8,201,206.6,200.7,206.4z"/>
			<path class="st2" d="M202.5,206.1c-0.1,0-0.1,0.2,0,0.2C202.6,206.3,202.6,206.1,202.5,206.1z"/>
			<path class="st2" d="M267.1,189c-0.2,0-0.2,0.3,0,0.3c0.3,0,0.5,0.1,0.7,0.3c0.2,0.2,0.2,0.4,0.4,0.5c0.1,0.1,0.2,0,0.2-0.1
				C268.5,189.4,267.7,188.9,267.1,189z"/>
			<path class="st2" d="M268,187.2c-0.2,0-0.3,0.3-0.1,0.3c0.3,0.1,0.6,0.2,0.9,0.1c0.1,0,0.1-0.1,0-0.2
				C268.6,187.3,268.3,187.3,268,187.2z"/>
			<path class="st2" d="M265.8,124.4c-0.2,0.1,0,0.4,0.2,0.3c0.3-0.1,0.4,0.2,0.5,0.4c0,0.1,0.2,0.1,0.2,0
				C267,124.6,266.2,124.2,265.8,124.4z"/>
			<path class="st2" d="M267.1,122.7c0.1,0,0.2-0.1,0.1-0.2c-0.1-0.1-0.2-0.1-0.3-0.2c-0.2-0.1-0.3,0.2-0.1,0.3
				C266.8,122.6,266.9,122.6,267.1,122.7z"/>
			<path class="st2" d="M130.3,124.2c0,0.1,0.1,0,0.2,0c0-0.2-0.1-0.4-0.2-0.6c-0.1-0.1-0.2-0.2-0.3-0.3c0,0-0.1-0.1-0.1-0.1
				c0,0-0.1-0.1-0.1-0.1c0,0,0,0,0,0l0,0c0.1-0.1,0.1-0.2,0-0.3c-0.3-0.1-0.5,0.2-0.3,0.5C129.6,123.7,130,123.9,130.3,124.2z"/>
			<path class="st2" d="M129.1,126.4c0.2,0.1,0.4,0.2,0.6,0.3c0.1,0,0.2-0.1,0.1-0.2c-0.2-0.2-0.3-0.3-0.5-0.4
				C129.1,126,128.9,126.3,129.1,126.4z"/>
			<path class="st2" d="M128.5,171c0.2-0.2,0.4-0.3,0.6-0.3c0.1,0,0.1-0.2,0-0.3c-0.4-0.1-0.7,0.1-0.8,0.4
				C128.3,171,128.4,171.1,128.5,171z"/>
			<path class="st2" d="M129.3,173.3c-0.1,0-0.3,0.1-0.4,0.2c-0.2,0.1,0,0.3,0.2,0.3c0.1-0.1,0.2-0.1,0.3-0.2
				C129.5,173.4,129.4,173.2,129.3,173.3z"/>
			<path class="st2" d="M144,178.1L144,178.1c-0.1,0-0.2-0.1-0.3-0.1c-0.3,0-0.8,0.2-0.8,0.6c-0.1,0.5,0,0.9,0.5,1.2
				c0.4,0.2,1,0.1,1.1-0.5C144.6,178.8,144.4,178.3,144,178.1z"/>
			<path class="st2" d="M143.1,175.3C143.1,175.3,143.1,175.4,143.1,175.3c0.6,0.4,1.3-0.3,1-0.8c0,0,0,0,0,0c0,0,0,0,0-0.1
				c0,0,0,0,0,0c-0.1-0.2-0.3-0.4-0.6-0.4c-0.3,0-0.6,0.2-0.7,0.5C142.7,174.9,142.8,175.1,143.1,175.3z"/>
			<path class="st2" d="M143.1,170.4c0.1,0.4,0.6,0.4,0.9,0.2c0.1-0.1,0.1-0.1,0.1-0.2c0.2-0.2,0.4-0.4,0.3-0.8
				c0-0.1-0.1-0.3-0.1-0.4l0,0c-0.2-0.7-1.2-0.6-1.3,0.1c-0.1,0.1-0.2,0.3-0.2,0.6C142.8,170.1,142.9,170.3,143.1,170.4z"/>
			<path class="st2" d="M254.4,169.1c1,0,1-1.5,0-1.5C253.4,167.6,253.4,169.1,254.4,169.1z"/>
			<path class="st2" d="M254.4,173.5c0.5,0,0.8-0.4,0.8-0.8c0.1-0.2,0-0.5-0.1-0.7c-0.1-0.1-0.1-0.1,0,0c0,0,0,0,0,0
				c0,0-0.1-0.1-0.1-0.1c0,0,0,0,0,0c-0.3-0.3-0.8-0.4-1.1,0c-0.2,0.2-0.3,0.5-0.3,0.8C253.5,173.1,253.9,173.5,254.4,173.5z"/>
			<path class="st2" d="M254.6,176.5c-1.2,0-1.2,1.9,0,1.9C255.8,178.3,255.8,176.5,254.6,176.5z"/>
		</g>
		<g>
			<g>
				<path class="st0" d="M172.5,144.8h-5.1v18.8h-2.2v-18.8h-5.1v-2.1h12.5V144.8z"/>
				<path class="st0" d="M174.8,143c0.7-0.2,1.4-0.3,2.2-0.3c0.8-0.1,1.5-0.1,2.2-0.1c0.8,0,1.5,0.1,2.2,0.3c0.7,0.2,1.3,0.5,1.8,1
					c0.5,0.4,0.9,1,1.2,1.8c0.3,0.7,0.5,1.6,0.5,2.7c0,1.6-0.3,3-1,4c-0.7,1-1.6,1.7-2.7,2l1.1,1.1l4.1,8.3h-2.6l-4.5-9.1l-2.2-0.4
					v9.5h-2.2V143z M177.1,152.6h1.8c1.1,0,2-0.3,2.7-1c0.7-0.7,1-1.8,1-3.2c0-1.1-0.3-2-0.8-2.7c-0.5-0.7-1.4-1.1-2.4-1.1
					c-0.4,0-0.8,0-1.2,0c-0.4,0-0.7,0.1-1,0.1V152.6z"/>
				<path class="st0" d="M196.4,157.8h-5.9l-1.7,5.8h-2.2l6.3-21.2h1.2l6.3,21.2h-2.3L196.4,157.8z M191.1,155.8h4.7l-1.8-6.5
					l-0.5-3.1h-0.1l-0.6,3.2L191.1,155.8z"/>
				<path class="st0" d="M205.9,157l0.5,3.2h0.1l0.6-3.2l3.9-14.2h2.3l-6.3,21.2h-1.2l-6.4-21.2h2.5L205.9,157z"/>
				<path class="st0" d="M215.1,142.8h9.3v2.1h-7v7.1h6.5v2.1h-6.5v7.6h7.2v2.1h-9.4V142.8z"/>
				<path class="st0" d="M237.9,163.6h-10v-20.8h2.2v18.8h7.8V163.6z"/>
			</g>
			<g>
				<path class="st0" d="M164.6,167.3c0,0.1,0,0.2,0,0.4c0,0.1-0.1,0.2-0.1,0.3c-0.1,0.1-0.1,0.2-0.2,0.3c-0.1,0.1-0.2,0.1-0.3,0.2
					v0c0.1,0,0.2,0.1,0.3,0.1c0.1,0.1,0.2,0.1,0.3,0.2c0.1,0.1,0.1,0.2,0.2,0.3c0,0.1,0.1,0.3,0.1,0.5c0,0.2,0,0.5-0.1,0.6
					c-0.1,0.2-0.2,0.3-0.3,0.4c-0.1,0.1-0.3,0.2-0.5,0.3c-0.2,0.1-0.4,0.1-0.6,0.1c-0.1,0-0.1,0-0.2,0c-0.1,0-0.2,0-0.3,0
					c-0.1,0-0.2,0-0.3,0s-0.2,0-0.3-0.1v-4.7c0.1,0,0.3-0.1,0.5-0.1c0.2,0,0.4,0,0.6,0c0.2,0,0.3,0,0.5,0c0.2,0,0.3,0.1,0.4,0.2
					c0.1,0.1,0.2,0.2,0.3,0.3C164.6,166.8,164.6,167,164.6,167.3z M163,168.3c0.1,0,0.1,0,0.2,0c0.1,0,0.2,0,0.2,0
					c0.2-0.1,0.3-0.2,0.4-0.3c0.1-0.2,0.2-0.3,0.2-0.6c0-0.2,0-0.3-0.1-0.4s-0.1-0.2-0.2-0.2c-0.1-0.1-0.2-0.1-0.3-0.1s-0.2,0-0.3,0
					c-0.1,0-0.2,0-0.3,0c-0.1,0-0.2,0-0.2,0v1.7H163z M163.3,170.6c0.1,0,0.2,0,0.3-0.1c0.1,0,0.2-0.1,0.3-0.2
					c0.1-0.1,0.1-0.2,0.2-0.3c0-0.1,0.1-0.2,0.1-0.4c0-0.2,0-0.3-0.1-0.5c-0.1-0.1-0.1-0.2-0.2-0.3c-0.1-0.1-0.2-0.1-0.3-0.1
					c-0.1,0-0.2,0-0.4,0h-0.5v1.8c0,0,0.1,0,0.1,0c0,0,0.1,0,0.1,0c0.1,0,0.1,0,0.2,0C163.2,170.6,163.3,170.6,163.3,170.6z"/>
				<path class="st0" d="M171.7,169.6h-1.4L170,171h-0.5l1.4-4.9h0.3l1.4,4.9h-0.5L171.7,169.6z M170.5,169.2h1.1l-0.4-1.5L171,167
					h0l-0.1,0.7L170.5,169.2z"/>
				<path class="st0" d="M179.9,170.8c-0.1,0.1-0.3,0.2-0.4,0.2c-0.2,0-0.4,0.1-0.5,0.1c-0.2,0-0.5,0-0.7-0.1s-0.4-0.2-0.5-0.4
					c-0.1-0.2-0.3-0.5-0.3-0.8c-0.1-0.3-0.1-0.7-0.1-1.1c0-0.5,0-0.8,0.1-1.2c0.1-0.3,0.2-0.6,0.4-0.8c0.2-0.2,0.3-0.3,0.5-0.4
					c0.2-0.1,0.4-0.1,0.6-0.1c0.2,0,0.4,0,0.5,0c0.1,0,0.3,0.1,0.4,0.1l-0.1,0.5c-0.1-0.1-0.2-0.1-0.3-0.1c-0.1,0-0.3,0-0.4,0
					s-0.3,0-0.5,0.1c-0.1,0.1-0.3,0.2-0.4,0.3c-0.1,0.2-0.2,0.4-0.3,0.6c-0.1,0.3-0.1,0.6-0.1,0.9c0,0.7,0.1,1.2,0.3,1.5
					c0.2,0.3,0.5,0.5,0.9,0.5c0.2,0,0.3,0,0.4-0.1c0.1,0,0.2-0.1,0.3-0.2L179.9,170.8z"/>
				<path class="st0" d="M185.6,168.8h-0.2v2.2h-0.5v-4.8h0.5v2.2l0.2-0.1l1.2-2.1h0.6l-1.3,2.1l-0.2,0.2l0.3,0.3l1.4,2.2H187
					L185.6,168.8z"/>
				<path class="st0" d="M193.8,168.6h1.3v2.1c-0.1,0.1-0.3,0.2-0.5,0.3c-0.2,0.1-0.4,0.1-0.6,0.1c-0.3,0-0.5,0-0.7-0.1
					c-0.2-0.1-0.4-0.2-0.5-0.4c-0.1-0.2-0.3-0.5-0.3-0.8c-0.1-0.3-0.1-0.7-0.1-1.1c0-0.4,0-0.8,0.1-1.1c0.1-0.3,0.2-0.6,0.4-0.8
					c0.2-0.2,0.3-0.3,0.6-0.4s0.4-0.1,0.6-0.1c0.2,0,0.4,0,0.6,0c0.1,0,0.3,0.1,0.4,0.1l-0.1,0.5c-0.1-0.1-0.2-0.1-0.3-0.1
					c-0.1,0-0.3,0-0.4,0c-0.2,0-0.3,0-0.5,0.1c-0.1,0.1-0.3,0.2-0.4,0.3c-0.1,0.2-0.2,0.4-0.3,0.6c-0.1,0.3-0.1,0.6-0.1,0.9
					c0,0.7,0.1,1.2,0.3,1.5c0.2,0.3,0.5,0.5,0.9,0.5c0.2,0,0.4-0.1,0.6-0.2V169l-0.9-0.1V168.6z"/>
				<path class="st0" d="M200.3,166.2c0.2,0,0.3-0.1,0.5-0.1c0.2,0,0.3,0,0.5,0c0.2,0,0.3,0,0.5,0.1c0.2,0,0.3,0.1,0.4,0.2
					c0.1,0.1,0.2,0.2,0.3,0.4c0.1,0.2,0.1,0.4,0.1,0.6c0,0.4-0.1,0.7-0.2,0.9c-0.2,0.2-0.4,0.4-0.6,0.5l0.3,0.3l0.9,1.9h-0.6l-1-2.1
					l-0.5-0.1v2.2h-0.5V166.2z M200.8,168.4h0.4c0.3,0,0.5-0.1,0.6-0.2c0.2-0.2,0.2-0.4,0.2-0.7c0-0.3-0.1-0.5-0.2-0.6
					c-0.1-0.2-0.3-0.2-0.6-0.2c-0.1,0-0.2,0-0.3,0c-0.1,0-0.2,0-0.2,0V168.4z"/>
				<path class="st0" d="M207.6,168.6c0-0.8,0.1-1.4,0.4-1.9c0.3-0.4,0.7-0.6,1.2-0.6c0.3,0,0.5,0.1,0.7,0.2
					c0.2,0.1,0.4,0.3,0.5,0.5c0.1,0.2,0.2,0.5,0.3,0.8c0.1,0.3,0.1,0.7,0.1,1c0,0.8-0.1,1.4-0.4,1.9c-0.3,0.4-0.7,0.6-1.2,0.6
					c-0.3,0-0.5-0.1-0.7-0.2c-0.2-0.1-0.4-0.3-0.5-0.5c-0.1-0.2-0.2-0.5-0.3-0.8C207.6,169.3,207.6,169,207.6,168.6z M208.2,168.6
					c0,0.3,0,0.5,0.1,0.8c0,0.2,0.1,0.5,0.2,0.6c0.1,0.2,0.2,0.3,0.3,0.4c0.1,0.1,0.3,0.2,0.5,0.2c0.3,0,0.6-0.2,0.8-0.5
					c0.2-0.3,0.3-0.8,0.3-1.5c0-0.3,0-0.5-0.1-0.8s-0.1-0.5-0.2-0.6c-0.1-0.2-0.2-0.3-0.3-0.4s-0.3-0.2-0.5-0.2
					c-0.3,0-0.6,0.2-0.8,0.5C208.2,167.4,208.2,167.9,208.2,168.6z"/>
				<path class="st0" d="M218.1,166.2h0.5v3.2c0,0.6-0.1,1-0.3,1.3c-0.2,0.3-0.5,0.4-1,0.4c-0.5,0-0.8-0.1-1.1-0.4
					c-0.2-0.2-0.3-0.6-0.3-1.2v-3.3h0.5v3.1c0,0.2,0,0.5,0,0.6c0,0.2,0.1,0.3,0.2,0.4c0.1,0.1,0.2,0.2,0.3,0.2
					c0.1,0,0.2,0.1,0.4,0.1c0.3,0,0.5-0.1,0.6-0.3c0.1-0.2,0.2-0.5,0.2-1V166.2z"/>
				<path class="st0" d="M224.6,167.9l-0.3-0.8h0l0.1,0.8v3h-0.5v-4.9h0.3l1.8,3.1l0.3,0.7h0l-0.1-0.7v-3h0.5v4.9h-0.3L224.6,167.9z
					"/>
				<path class="st0" d="M232,166.2c0.1,0,0.2,0,0.2,0c0.1,0,0.2,0,0.3,0c0.1,0,0.2,0,0.3,0c0.1,0,0.2,0,0.2,0
					c0.3,0,0.6,0.1,0.9,0.2c0.2,0.1,0.4,0.3,0.6,0.5c0.1,0.2,0.2,0.5,0.3,0.8c0.1,0.3,0.1,0.6,0.1,1c0,0.3,0,0.6-0.1,0.9
					c-0.1,0.3-0.2,0.6-0.3,0.8c-0.1,0.2-0.3,0.4-0.6,0.5s-0.5,0.2-0.9,0.2c-0.1,0-0.1,0-0.2,0c-0.1,0-0.2,0-0.3,0
					c-0.1,0-0.2,0-0.3,0c-0.1,0-0.2,0-0.2,0V166.2z M233,166.6c0,0-0.1,0-0.1,0c-0.1,0-0.1,0-0.2,0c-0.1,0-0.1,0-0.1,0
					c0,0-0.1,0-0.1,0v3.9c0,0,0.1,0,0.1,0c0,0,0.1,0,0.2,0s0.1,0,0.2,0c0,0,0.1,0,0.1,0c0.3,0,0.5-0.1,0.6-0.2
					c0.2-0.1,0.3-0.3,0.4-0.4c0.1-0.2,0.2-0.4,0.2-0.6c0-0.2,0.1-0.5,0.1-0.8c0-0.2,0-0.5-0.1-0.7c0-0.2-0.1-0.4-0.2-0.6
					c-0.1-0.2-0.2-0.3-0.4-0.4C233.5,166.7,233.3,166.6,233,166.6z"/>
			</g>
		</g>
	</g>
	<g>
		<path class="st1" d="M262.2,52.2c-2.5,4.1-4.3,7.9-5.8,12.5c0,0.1,0.2,0.2,0.2,0.1c2.3-3.4,5.6-6.8,9.2-8.9
			C269.7,53.6,264.5,48.3,262.2,52.2z"/>
		<path class="st1" d="M251.2,54.6c-0.2,1.1,0,2.1,0.2,3.2c0.3,1.2,0.4,2.5,0.4,3.7c0,0.2,0.4,0.3,0.4,0.1c0.3-1.1,0.7-2.4,1.2-3.5
			c0.5-1,0.9-1.9,0.9-3C254.5,53.2,251.5,52.8,251.2,54.6z"/>
		<path class="st1" d="M247.4,59.9c0.1-0.4-0.1-1-0.6-1.1c0,0,0,0-0.1,0c-0.4-0.1-0.7,0.1-0.9,0.4c0,0,0,0,0,0.1
			c-0.2,0.3-0.1,0.8,0.1,1c0.2,0.2,0.3,0.3,0.5,0.5c0.1,0.2,0.4,0.3,0.6,0.2c0.2-0.1,0.4-0.3,0.4-0.5
			C247.4,60.3,247.3,60.1,247.4,59.9z"/>
		<path class="st1" d="M93.3,157.1c-2,0.2-3.9,0-5.9,0.3c-2,0.2-3.9,1.2-5.5,2.3c-3.1,2.2,0.2,6.6,3.2,4.2c2.6-2,5.1-5,8.2-6.3
			C93.6,157.5,93.6,157,93.3,157.1z"/>
		<path class="st1" d="M90.9,163.7c-1.9,1.9-5,4.4-5.2,7.2c-0.1,1.6,2.3,2.2,3,0.8c0.6-1.2,0.6-2.6,0.8-3.9c0.3-1.5,0.8-2.7,1.6-4
			C91.3,163.8,91.1,163.6,90.9,163.7z"/>
		<path class="st1" d="M320.5,189.9c-4.5-1.8-8.4-0.4-12.7,1.1c-0.3,0.1-0.2,0.5,0.1,0.5c3.7,0.4,6.8,2.7,10.2,4.1
			C322.2,197.5,324.7,191.6,320.5,189.9z"/>
		<path class="st1" d="M320.3,201.8c-1.7-1.5-4.1-1.8-5.9-3.3c-0.2-0.2-0.6,0.1-0.4,0.3c1.4,1.9,1.7,4.3,3.1,6.1
			c0.8,0.9,2.4,0.8,3.2,0C321.1,204.1,321.2,202.6,320.3,201.8z"/>
		<path class="st1" d="M256.1,228.8c-0.8-3.1-2.4-5.9-5.2-7.5c-0.1-0.1-0.3,0.1-0.2,0.2c0.7,1.2,1.4,2.4,1.7,3.7
			c0.3,1.2,0.2,2.5,0.4,3.8c0.1,0.8,0.5,1.4,1.2,1.6c0.1,0,0.1,0,0.2,0.1C255.3,231.1,256.4,229.9,256.1,228.8z"/>
		<path class="st1" d="M261.5,219.8c-2-1.6-4.9-1.2-7.3-1.3c-0.4,0-0.5,0.6-0.1,0.7c1.2,0.3,1.9,0.9,2.7,1.8c0.7,0.8,1.2,1.6,2,2.3
			C260.8,224.8,263.4,221.4,261.5,219.8z"/>
		<path class="st1" d="M166.1,105.3c-0.9-1.7-1.8-3.4-2.6-5.2c-0.9-2-1.9-3.8-4.3-3.8c-1.4,0-2.9,1.3-2.7,2.7
			c0.2,2.1,2.2,2.9,4.1,3.3c2,0.4,3.9,1.7,5.3,3.2C166,105.6,166.2,105.5,166.1,105.3z"/>
		<path class="st1" d="M167.5,94.1c-1.1-1.3-3.5,0.1-2.9,1.7c0.8,2.2,2.7,3.4,3.1,5.8c0,0.2,0.4,0.2,0.4,0
			C168.7,99.1,169.4,96.3,167.5,94.1z"/>
		<path class="st1" d="M198.9,214.3c-1.9,1.6-3.7,3.4-3.9,6c-0.1,2.1,3.1,2.1,3.3,0c0.1-2-0.2-3.9,1-5.7
			C199.4,214.3,199.1,214.1,198.9,214.3z"/>
		<path class="st1" d="M202.5,218.1c-0.2-0.5-0.4-1.1-0.4-1.6c0-0.2-0.3-0.3-0.4-0.1c-0.3,0.6-0.6,1.1-0.6,1.8
			c0,0.7,0.1,1.5,0.8,1.8c0.3,0.2,0.9,0,1-0.4C203,219,202.7,218.6,202.5,218.1z"/>
		<path class="st1" d="M250.3,92.5c-0.8,1.7-1.3,3.4-2.4,4.9c-1.1,1.7-2.5,3.3-4.2,4.2c-0.1,0,0,0.1,0.1,0.1c4-1,8.6-3.6,9.4-8.1
			C253.4,92.1,251.1,90.8,250.3,92.5z"/>
		<path class="st1" d="M256.6,95.6c-0.6,1.1-0.9,2.2-1.8,3.2c-0.9,0.9-2,1.9-3.2,2.4c-0.3,0.1-0.2,0.4,0.1,0.4
			c2.9-0.4,6.1-2,7.3-4.9C259.4,95.2,257.3,94.3,256.6,95.6z"/>
		<path class="st1" d="M286.4,140.4c-1.1-2.2-4.7-1.7-6.7-1.6c-0.5,0-0.6,0.8-0.1,0.9c0.9,0.2,1.8,0.7,2.5,1.3
			c0.8,0.8,1.1,1.6,2.3,2C286,143.5,287.1,141.8,286.4,140.4z"/>
		<path class="st1" d="M145.9,213.7c-0.4-0.1-0.7-0.3-1.1-0.5c-0.4-0.1-0.8-0.1-1.2-0.1c-0.4,0-0.9-0.1-1.3,0
			c-0.5,0.1-1,0.3-1.4,0.6c-1.1,0.4-1.8,1.1-2.2,2.4c-1,3.1,3.6,5,5.2,2.2c0.3-0.6,0.6-1.2,0.6-1.9c0-0.1,0-0.2,0-0.3
			c0.1-0.3,0.2-0.6,0.2-0.9c0.3-0.4,0.9-1,1.3-1.1C146.1,214.1,146.1,213.8,145.9,213.7z"/>
	</g>
</g>
</svg>
